<svg xmlns="http://www.w3.org/2000/svg" viewBox="0 0 136 378"><defs><style>.cls-1{fill:#f90606;}.cls-2{fill:#082bf7;}</style></defs><title>nuages</title><g id="nuage1"><path class="cls-1" d="M98.5,172.5a63,63,0,1,1,63-63A63.07,63.07,0,0,1,98.5,172.5Z" transform="translate(-35 -46)"/><path d="M98.5,47A62.5,62.5,0,1,1,36,109.5,62.57,62.57,0,0,1,98.5,47m0-1A63.5,63.5,0,1,0,162,109.5,63.5,63.5,0,0,0,98.5,46Z" transform="translate(-35 -46)"/></g><g id="nuage2"><path class="cls-2" d="M107.5,423.5a63,63,0,1,1,63-63A63.07,63.07,0,0,1,107.5,423.5Z" transform="translate(-35 -46)"/><path d="M107.5,298A62.5,62.5,0,1,1,45,360.5,62.57,62.57,0,0,1,107.5,298m0-1A63.5,63.5,0,1,0,171,360.5,63.5,63.5,0,0,0,107.5,297Z" transform="translate(-35 -46)"/></g></svg>