<svg xmlns="http://www.w3.org/2000/svg" viewBox="0 0 566.01 401"><defs><style>.cls-1{fill:#366f96;}.cls-2{fill:#fff;}.cls-3{fill:#f4f4f4;}.cls-4{fill:#7c5032;}.cls-4,.cls-8{stroke:#174056;stroke-miterlimit:10;}.cls-5{fill:#434434;}.cls-6{fill:#174056;}.cls-7{fill:#898e64;}.cls-8{fill:#267f37;}</style></defs><title>board-v1</title><g id="ciel"><rect class="cls-1" x="0.5" y="0.5" width="564" height="399"/><path d="M564,1V399H1V1H564m1-1H0V400H565V0Z"/></g><g id="nuage1"><ellipse class="cls-2" cx="51.5" cy="54.76" rx="11.1" ry="11.64"/><ellipse class="cls-2" cx="110.95" cy="43.93" rx="34.85" ry="34.93"/><ellipse class="cls-2" cx="144.25" cy="49.89" rx="23.5" ry="23.56"/><ellipse class="cls-3" cx="51.5" cy="56.5" rx="11.1" ry="10.56"/><ellipse class="cls-3" cx="110.95" cy="47.18" rx="34.85" ry="31.68"/><ellipse class="cls-3" cx="144.25" cy="52.58" rx="23.5" ry="21.37"/><ellipse class="cls-2" cx="110.95" cy="43.93" rx="34.85" ry="34.93"/><ellipse class="cls-3" cx="110.95" cy="45.29" rx="34.85" ry="33.58"/><ellipse class="cls-2" cx="166.09" cy="53.95" rx="15.13" ry="15.16"/><ellipse class="cls-3" cx="166.09" cy="55.46" rx="15.13" ry="14.51"/><ellipse class="cls-2" cx="72.35" cy="50.99" rx="20.55" ry="22.49" transform="translate(-6.92 11.61) rotate(-8.76)"/><ellipse class="cls-3" cx="72.74" cy="53.52" rx="20.55" ry="20.4" transform="translate(-7.3 11.7) rotate(-8.76)"/><ellipse class="cls-2" cx="126.48" cy="64.34" rx="16.29" ry="16.32" transform="translate(-15.42 64.61) rotate(-27.07)"/><ellipse class="cls-3" cx="127.33" cy="66" rx="16.29" ry="14.81" transform="translate(-16.09 65.18) rotate(-27.07)"/></g><g id="nuage2"><circle class="cls-2" cx="379.88" cy="66.03" r="37.88"/><ellipse class="cls-2" cx="428.87" cy="61.73" rx="43.6" ry="41.43" transform="translate(-2 15.98) rotate(-2.13)"/><circle class="cls-2" cx="472.73" cy="70.4" r="25.73"/><ellipse class="cls-3" cx="379.88" cy="68.69" rx="37.88" ry="36.74"/><path class="cls-3" d="M472.43,64.29c.85,21.07-18,38.81-42,39.64S386.15,88.35,385.3,67.28s18-38.81,42-39.64S471.58,43.23,472.43,64.29Z"/><ellipse class="cls-3" cx="472.73" cy="71.62" rx="25.73" ry="25.05"/><circle class="cls-2" cx="336.26" cy="61.73" r="25.73"/><ellipse class="cls-3" cx="336.26" cy="64.3" rx="25.73" ry="23.7"/><ellipse class="cls-2" cx="430.19" cy="61.48" rx="43.6" ry="41.43" transform="translate(-1.99 16.03) rotate(-2.13)"/><path class="cls-3" d="M473.69,62.27c.89,22-17.9,40.59-42,41.41s-44.29-16.39-45.17-38.44,17.9-40.59,42-41.41S472.8,40.22,473.69,62.27Z"/><circle class="cls-2" cx="473.27" cy="70.4" r="25.73"/><ellipse class="cls-3" cx="473.27" cy="72.16" rx="25.73" ry="24.51"/><ellipse class="cls-2" cx="406.92" cy="88.04" rx="20" ry="19.95" transform="translate(271.65 481.78) rotate(-83.25)"/><ellipse class="cls-3" cx="406.65" cy="90.31" rx="18.14" ry="19.95" transform="translate(269.15 483.52) rotate(-83.25)"/></g><g id="pendu"><path class="cls-4" d="M.5,400.5V222.2s35-68.58,57-60.55,70,134.48,121,110.39,22-72.26,91-44.16,52,56.2,106,32.11,0-84.3,82-38.14,96,60.21,102,48.17,5-12,5-12l1,142.5Z"/><path class="cls-5" d="M200,365.75a9.81,9.81,0,0,1-1-.07c-.49-.05-.94-.08-1.2-.08a1.1,1.1,0,0,0-.33,0,2.86,2.86,0,0,1-.48-.06,14.26,14.26,0,0,0-2.45-.32,2.24,2.24,0,0,0-.7.09.61.61,0,0,1-.19,0,.3.3,0,0,1-.25-.1c-.09-.16-.19-.32-1.86-.49a9.71,9.71,0,0,1-2-.26,3,3,0,0,0-.94-.25,8.57,8.57,0,0,1-2.6-.76,9.41,9.41,0,0,0-2-.72c-1.21-.31-1.21-.31-1.63-.77a3.19,3.19,0,0,0-1.21-.87c-.64-.22-.85-.37-1.48-1.33a6,6,0,0,0-1.45-1.63,24.31,24.31,0,0,1-3.75-3.6c-.57-1-.92-1.25-2.32-1.62-1.24-.34-1.57-.6-2-1.25a12.36,12.36,0,0,0-.86-1.1,2.84,2.84,0,0,1-.76-2.07,18.72,18.72,0,0,0-.29-2,7.78,7.78,0,0,1-.13-2.18,10.18,10.18,0,0,1,1.08-4.3,4.18,4.18,0,0,0,.48-3.07,4.33,4.33,0,0,0-1.07-2.65c-.42-.56-.42-.56-.42-1.11a2,2,0,0,1,.23-1.06c.54-1.05.44-1.51-.48-2.31a1.9,1.9,0,0,1-.8-1.92c0-.84,0-1.24-.34-1.49a5.14,5.14,0,0,1-.46-1.79,3.36,3.36,0,0,1,.15-.89,3.33,3.33,0,0,0-.12-2.33,2.69,2.69,0,0,0-.9-1.44,1.14,1.14,0,0,1-.52-1c-.06-.41-.21-1.13-.35-1.62s-.32-1.3-.46-1.93a24.84,24.84,0,0,0-.73-2.76l-.14-.26-.37-.05c-.52,0-.8.65-.8,1.1a1.73,1.73,0,0,1-.26.63,1.86,1.86,0,0,1-1,.77,2.81,2.81,0,0,1-1.21.35.88.88,0,0,1-.84-.49c-.35-.61-.56-.7-1.42-.83s-1-.3-1-.31a.41.41,0,0,1,0-.21.53.53,0,0,1,.07-.14h.23a1.35,1.35,0,0,0,1.21-.75.67.67,0,0,0-.19-.76,3.3,3.3,0,0,0-1-.43c-.76-.23-.76-.33-.76-.69,0-.52.11-.77.77-1.17a6,6,0,0,0,1-.77l.46-.49-.31-1.12a7.11,7.11,0,0,1-.12-2.6,3.64,3.64,0,0,0,.24-1.25,4.1,4.1,0,0,1,.28-1.25,6,6,0,0,0,.4-1.6,11,11,0,0,1,.31-1.54,20.57,20.57,0,0,0,.37-5.78,3.57,3.57,0,0,1,0-1.67,3.39,3.39,0,0,0,0-1.34.66.66,0,0,1,0-.39c.06-.09.27-.22,1-.37a15.41,15.41,0,0,0,1.51-.45c.45-.16,1.26-.41,1.79-.56a5.69,5.69,0,0,0,3-1.51,1.9,1.9,0,0,0,.62-1.05,3.07,3.07,0,0,1,.16-.39,6.49,6.49,0,0,0,.29-2.65,20,20,0,0,1,.1-2,6.55,6.55,0,0,0,.24-.92,8,8,0,0,1,.22-.87,2.32,2.32,0,0,0,.14-.77,4.88,4.88,0,0,1,.44-1.4c.31-.62.13-7.76-.08-8.25s-.29-1.35-.22-5a6.4,6.4,0,0,0-.26-2,17.43,17.43,0,0,1-.57-3.43,15,15,0,0,0-1.17-4.1,5.48,5.48,0,0,0-.59-1.23c-.06-.08-.1-.17-.08-.77a7.78,7.78,0,0,1,.13-1.18c.15-.61.07-.82-.37-1.47a3,3,0,0,1-.41-.84c-.08-.5-.26-1.4-.41-2.09a4.86,4.86,0,0,1-.09-.84c0-.89-.48-1-.63-1a4.1,4.1,0,0,0-1.87.7s0,0,0,0h-.23c-.26,0-.26,0-.49-.29s-.71-.83-1.1-1.24a4.2,4.2,0,0,0-2-1.32,13.93,13.93,0,0,1-1.63-.76,14.92,14.92,0,0,0-2.25-.93c-.86-.29-1.51-.54-1.71-.63a3.63,3.63,0,0,0,.43-.73,3,3,0,0,0,0-2.55.78.78,0,0,1-.06-.13,4.69,4.69,0,0,1,.25-.79l.39-1.05,0-5-.41-.6a2.74,2.74,0,0,1-.34-.89,9.29,9.29,0,0,0-.31-1.23,3.43,3.43,0,0,1-.16-.56,1.07,1.07,0,0,0-.52-.78,1.62,1.62,0,0,1-.06-.58,9.44,9.44,0,0,0-.2-1.73,2,2,0,0,1-.06-1.08s.49-2.24-.35-2.56l-.09,0h-.14c-.93,0-3,2.37-3.13,2.47-.94,1.06-1,1.06-1.78,1.07a4.1,4.1,0,0,1-1-.11,1.3,1.3,0,0,0-.45-.1c-.36,0-.6.21-1,.56a6.12,6.12,0,0,1-.68.53,4.21,4.21,0,0,0-1,1c-.61.83-1,1-1.1,1s-.06-.07-.15-.17a3.17,3.17,0,0,0-2.29-.86c-.47,0-.5,0-.59-.66a2.11,2.11,0,0,0-.67-1.4l-.65-.68a4.51,4.51,0,0,1-.07-1v-1l.49-.57a26.36,26.36,0,0,1,2.6-2.6,5.84,5.84,0,0,0,1.49-1.91,21.43,21.43,0,0,1,1.86-2.91,2.43,2.43,0,0,0,.48-1.05,4,4,0,0,1,.78-1,.75.75,0,0,0,.47-.67c0-.45-.42-.71-.86-.94a2.41,2.41,0,0,0-1-.37.59.59,0,0,0-.6.46,11.78,11.78,0,0,1-1.72,1.7,1.18,1.18,0,0,1-.66-.39,3.14,3.14,0,0,0-1.07-.8,3.93,3.93,0,0,0-1.77-.41,4.44,4.44,0,0,0-1.5.26l-.38.12.06-.06a2.29,2.29,0,0,0,.76-1.31c0-.23-.13-.62-1-.62-.55,0-.59,0-.7-2.46-.06-1.55,0-1.87.51-2.59.21-.33.53-.85.71-1.16a6.54,6.54,0,0,1,.59-.85c.46-.53.46-.68.46-.8a9.5,9.5,0,0,1,1.92-2,2.4,2.4,0,0,0,.93-.54c.29-.22,1.13-.8,1.91-1.32a5.86,5.86,0,0,0,2.36-2.27,13.89,13.89,0,0,0,.75-2.45,11.53,11.53,0,0,1,2.37-4.13,13.33,13.33,0,0,0,1.1-1.46,11,11,0,0,1,1-1.29,3.24,3.24,0,0,0,.52-.61,4.62,4.62,0,0,1,.45-.31,11.58,11.58,0,0,0,1.34-1.05,4.86,4.86,0,0,1,1-.74,2.46,2.46,0,0,0,1.08-.92,1.14,1.14,0,0,0,.28-1.05c-.19-.46-.74-.58-1.84-.82-.6-.13-1.31-.48-1.37-2,0-.78,0-1.18-.76-1.36-.13,0-.36-.37-.36-.91a2.59,2.59,0,0,0-.25-1.07,6,6,0,0,1-.41-2.54,4.49,4.49,0,0,1,.1-1.65,3.74,3.74,0,0,0,.1-1.87,3.48,3.48,0,0,0-.37-1.68,1.42,1.42,0,0,1-.1-.69c0-.87.51-1.8,2-3.7a10.24,10.24,0,0,0,.94-1.67c1.2-2.59,2.08-3.75,2.36-3.87h0c.28,0,.53-.32.65-.62s.36-.61,1.18-1.16l.1-.06a5.07,5.07,0,0,0,1.44-1.35l.13-.14a11.46,11.46,0,0,0,1.15-1.58,6.45,6.45,0,0,1,.58-.88,3.47,3.47,0,0,0,.57-1.18,15.71,15.71,0,0,1,.87-2,7.81,7.81,0,0,1,1.47-2.16,11,11,0,0,1,2.75-2,23.07,23.07,0,0,0,4.84-3.66c.54-.49,1-.87,1.08-.94a9.18,9.18,0,0,0,.88-.68c.33-.28.77-.63,1-.77a7.58,7.58,0,0,0,1.94-2.48,1.4,1.4,0,0,1,.17-.35.91.91,0,0,0,.32-.64,16,16,0,0,1,1.51-2.16c.32-.35.89-1,1.28-1.49a7,7,0,0,1,1-1,1.53,1.53,0,0,0,.67-.86,3.84,3.84,0,0,1,.15-.46,3.84,3.84,0,0,0,0-2.2,14.52,14.52,0,0,0-2.85-3.22,3.67,3.67,0,0,1-.71-.83,14.41,14.41,0,0,0-2.65-3.87c-.46-.5-1.16-1.31-1.55-1.81a9.69,9.69,0,0,0-1.51-1.49c-.63-.45-.59-.59-.54-.8a8.74,8.74,0,0,0,1.12-.28,6.78,6.78,0,0,1,1.72-.21,2.39,2.39,0,0,1,.67.06.87.87,0,0,0,.41.1,1.88,1.88,0,0,0,.75-.2c.25-.11.37-.16,1.55-.16l2.54,0,5.94.12,1.28,0c.87,0,1.85,0,1.85-.92a2.49,2.49,0,0,0-1-1.75,9.14,9.14,0,0,0-2.19-1.33,2.27,2.27,0,0,1-1-.71c-.07-.29,0-.3.18-.35A5.82,5.82,0,0,0,186,105c.13-.32.76-.39,1.27-.39s.56,0,.91.37.41.58.21.92l-.45.74.64.56a1.5,1.5,0,0,0,.75.41h0c.86,0,.92-.46.92-6.92,0-1.91,0-3.27,0-4.21h1.8a18.65,18.65,0,0,0,.19,3.33,10.12,10.12,0,0,1-.08,3.44,21.86,21.86,0,0,0-.16,2.5c0,1,0,3.18,0,3.48a.74.74,0,0,0,.12.63.65.65,0,0,0,.52.21h.23a2.69,2.69,0,0,1,1.31.55.89.89,0,0,0,.77.45,2.8,2.8,0,0,0,1-.28c.71-.28,1.22-.49,1.22-1.18a.77.77,0,0,1,.51-.39,1.14,1.14,0,0,0,.7-.48,3.12,3.12,0,0,1,.82-.42h0a2.07,2.07,0,0,0,.66-.14c.09,0,.46-.14.82-.22a2.92,2.92,0,0,0,1-.42,1.55,1.55,0,0,1,.37-.11,5.75,5.75,0,0,0,1.18-.37,5.36,5.36,0,0,1,.93-.3,2.72,2.72,0,0,0,.91-.34,6,6,0,0,1,1.54-.19c.83,0,2-.14,2.61-.2l2.25-.22a13.2,13.2,0,0,0,1.91-.3,16.15,16.15,0,0,1,3.56-.17c3.33,0,3.49.05,4.5.71a2.35,2.35,0,0,0,1.62.44c.88,0,1.45.2,1.69.57a3.39,3.39,0,0,0,1.62,1.43c.16,0,.6.15,1,.27l1,.3a1.81,1.81,0,0,1,.31.67.88.88,0,0,0,.55.58c1,.28,1.12.35,1.31.52a3.39,3.39,0,0,1,.54.85,2,2,0,0,0,1.14,1.25c.52.27.52.27.67,1.08a14,14,0,0,0,2,4.7c.1.15.43.69.74,1.19a13.52,13.52,0,0,0,1.93,2.56,3.66,3.66,0,0,1,.57.79,15.77,15.77,0,0,1-.26,5.39,24.21,24.21,0,0,0-.29,2.44,8.14,8.14,0,0,1-.24,1.68,2.12,2.12,0,0,0-.23.83,4.6,4.6,0,0,1-.21.77,14.12,14.12,0,0,0-.41,1.59,10.81,10.81,0,0,1-2.14,4.81,2,2,0,0,0-.46,1.09,11.41,11.41,0,0,1-.44,1.51,10.64,10.64,0,0,0-.49,1.84,4.14,4.14,0,0,1-.3.9,4.17,4.17,0,0,0-.39,1.42c0,.39,0,.49-.51.84a1.05,1.05,0,0,1-.57.25.54.54,0,0,1-.38-.18c-.46-.43-.55-.51-.55-3.55V142l-.85-.89a5.56,5.56,0,0,0-1.37-1.08c-.42-.19-.51-.23-.52-2.29a9.25,9.25,0,0,0-.18-2.21,2,2,0,0,1-.06-.51c0-.8-.24-.95-.34-1l-.12-.07h-.17a2.15,2.15,0,0,0-.88.34l-.78.46-.08,1a2,2,0,0,1-.56,1.47c-.14.11-.18.14-1.39.14h-1.58l-.57.52a1.16,1.16,0,0,1-.81.34l-.5,0h-.27a1,1,0,0,0-.27,0,.8.8,0,0,0-.73.65,1.67,1.67,0,0,1-1.36.6c-.47,0-.92,0-1.16.6a2.23,2.23,0,0,1-.54.78s-.4.07-.86.12a2,2,0,0,0-1.92,1.2,2.44,2.44,0,0,1-1.17.89,2,2,0,0,1-.7.09,4.82,4.82,0,0,1-1-.12,2.65,2.65,0,0,0-.58-.1,1.08,1.08,0,0,0-.83.47c-.2.21-.2.21-.82.21s-.73,0-.83-.13a1.13,1.13,0,0,0-.68-.32,1,1,0,0,0-.68.36,2.15,2.15,0,0,1-1.38.79,1.45,1.45,0,0,1-.83-.33,1.66,1.66,0,0,0-.89-.38h-.29l-.22.29a.63.63,0,0,0,0,.61,4.63,4.63,0,0,1-.67,1.33,2.32,2.32,0,0,0-.58,1.77,6.08,6.08,0,0,0,.27,1.48,4.49,4.49,0,0,1,.2,1.15,1.51,1.51,0,0,0,.4,1.23.3.3,0,0,1,.07.11,5.16,5.16,0,0,0,.26,1.05,4.05,4.05,0,0,1,.2.94,5.31,5.31,0,0,0,.95,2.29,1.93,1.93,0,0,1,.17,1,10.78,10.78,0,0,0,.21,1.78c.09.39.25,1.47.35,2.35a13.69,13.69,0,0,0,.38,2.17,5,5,0,0,1,.2,1,7.14,7.14,0,0,0,.21,1.19s0,.07-.05.23a1.61,1.61,0,0,0,.19,1.89,1.13,1.13,0,0,1,.25.63,2.22,2.22,0,0,0,.34,1,2.24,2.24,0,0,1,.15.51,55.57,55.57,0,0,0,1.91,5.66c.28.77.58,1.7.65,2a5,5,0,0,0,.47,1.21,2.22,2.22,0,0,1,.2.4,1.4,1.4,0,0,0,.26.62,7.5,7.5,0,0,1,.14,1.57c.08,2.78.46,4.55,1.25,5.92a3.91,3.91,0,0,1,.3,1c.23,1.31.28,1.58.78,1.94a3.33,3.33,0,0,1,.82,2,1.51,1.51,0,0,1-.11,1,3.22,3.22,0,0,0-.47.68c0,.07-.29.55-2.6,1.73-1.68.85-2.2,1.18-2.43,1.78a6.16,6.16,0,0,1-.71.55c-.29.19-1,.68-1.1,1.06a2.3,2.3,0,0,1-.27.46,21.58,21.58,0,0,0-1.63,3,7.51,7.51,0,0,0-.56,1.51c-.17.75-.41,4.46-.11,5a.33.33,0,0,1,0,.22,7.53,7.53,0,0,0-.12,1.49,2.85,2.85,0,0,1-.29,1.64c-.21.26-.23.64-.14,1.9.05.75.11,1.71.12,2.13,0,.7.07,1,.48,1.4.16.15.21.37.36,2.52.08,1.23.22,1.42.28,1.49a28.26,28.26,0,0,1,.71,2.91,12.56,12.56,0,0,1,.36,3.24,8.75,8.75,0,0,1-.35,3,15.35,15.35,0,0,0-.5,3.67c-.06,1.1-.09,2.82-.08,3.84a4.78,4.78,0,0,1-.2,2.24,6.61,6.61,0,0,1-.77,1.31c-.31.4-.86,1.16-1.23,1.71-.74,1.09-.74,1.09-1.32,1.1-1.44,0-2.27.31-2.48.85v0a1.09,1.09,0,0,0-.72-.28h-.13a.8.8,0,0,0-.56.27.78.78,0,0,0-.13.59.63.63,0,0,1-.07.21,1.63,1.63,0,0,0-.25.8.64.64,0,0,1-.08.23,1.4,1.4,0,0,0-.19,1.09,1.38,1.38,0,0,1-.1.73,1.45,1.45,0,0,0-.11,1c0,.25.08,1.41.09,3.11s0,3.41,0,3.76,0,1.15,0,1.75a3.81,3.81,0,0,0,.15,1.7,1.42,1.42,0,0,1,0,1,.94.94,0,0,0,.11,1,3.48,3.48,0,0,1,0,1.76,2.62,2.62,0,0,0-.15,1.3,6.44,6.44,0,0,1-.12,1.56c-.12.62-.3,2.12-.42,3.21s-.26,2.52-.33,3-.19,1.55-.28,2.38c-.29,2.58-.55,4.36-.64,4.73a1.83,1.83,0,0,1-.29.55,1.74,1.74,0,0,0-.41.75,1.1,1.1,0,0,1-.19.23,3.15,3.15,0,0,0-.83,2.14c.09.65.63.7,1.19.76a5,5,0,0,1,.91.16,7.62,7.62,0,0,0,2.24.41c.54,0,.57.08.67.3a2.36,2.36,0,0,0,1,1,2.07,2.07,0,0,0,1.19.42c.16,0,.35,0,.62,0l.53,0a1.16,1.16,0,0,1,.63.19c.59.3.79.62.79.72a5.12,5.12,0,0,1-1.61.42c-1.83.32-2.78.81-3.5,1.8a2.17,2.17,0,0,0-.43,1.57,5.19,5.19,0,0,1-.79,2.79,7.16,7.16,0,0,0-1,3.33,8,8,0,0,1-.34,1.69,7.67,7.67,0,0,0-.36,2.63c-.07,2.25-.12,2.31-1,3.29s-2.13,2.95-2.13,3.7a17.17,17.17,0,0,1-.92,2.95,4.49,4.49,0,0,0-.39,1.39c0,.34-.17,1.15-.3,1.79a4.4,4.4,0,0,0-.11,2,16.7,16.7,0,0,1,.08,2.26c0,1.7,0,1.7-.75,2.79-.58.87-.82,2-1,4.34a9.61,9.61,0,0,0,.26,4,2.89,2.89,0,0,0,1,1.58,8,8,0,0,0,2.66,1.53c.1,0,.21.13.4.53a14.38,14.38,0,0,0,1.09,1.73c1.12,1.55,1.33,1.84,1.71,1.87a.49.49,0,0,1,.12.16,1.06,1.06,0,0,0,.54.76c.36.22.48.45.48.51a1.27,1.27,0,0,0,.68,1,2.2,2.2,0,0,1,.52.45,8.38,8.38,0,0,0,.7.82,2.24,2.24,0,0,1,.3.38,1.89,1.89,0,0,0,.61.87,1.51,1.51,0,0,1,.32.41,1,1,0,0,0,.61.79,1.18,1.18,0,0,1,.35.33,5.23,5.23,0,0,0,2.16,1.54,2.4,2.4,0,0,0,1,.18c.39,0,.93-.05,2-.17l.34,0a1.33,1.33,0,0,1,.66.2l1.2.55a4.68,4.68,0,0,1,.88.5,7,7,0,0,0,1.06.67,28,28,0,0,1,3.62,2.15c.88.64.88.64,1,1.13a2.38,2.38,0,0,1,0,1.28,4,4,0,0,1-.19.81l-.5.06c-.65.07-1,.13-1.34.54l-.48-.51h-2.75a6.81,6.81,0,0,0-2.27.19.66.66,0,0,1-.18.06,2.33,2.33,0,0,0-1.16-.17c-.77,0-2,.07-3.68.21-.54,0-1,.07-1.33.07a5.34,5.34,0,0,1-1.78-.29,1.28,1.28,0,0,0-.38-.06H196l-.09.54a1.4,1.4,0,0,0,.67,1.14c0,.62.36.78.78.85a2.84,2.84,0,0,1,1.33.9,1.09,1.09,0,0,0,.58.59,1.79,1.79,0,0,1,.22.2,7.5,7.5,0,0,0,1.47,1,34,34,0,0,1,3.23,2,4.13,4.13,0,0,1,1.56,2.39,1.41,1.41,0,0,1-.45,1.57c-.48.58-.57.65-1.81.82-.48.06-1.46.23-2.18.37A7.35,7.35,0,0,1,200,365.75Z"/><path class="cls-6" d="M191.59,97a18.81,18.81,0,0,0,.2,2.9,9.7,9.7,0,0,1-.08,3.31,22,22,0,0,0-.17,2.58c0,1,0,3.08,0,3.38a1.23,1.23,0,0,0,.24,1,1.13,1.13,0,0,0,.9.39h.24a2.58,2.58,0,0,1,.91.38,1.36,1.36,0,0,0,1.16.63,3.15,3.15,0,0,0,1.17-.31c.68-.27,1.44-.58,1.53-1.48a.72.72,0,0,1,.2-.09,1.75,1.75,0,0,0,.91-.61,3.17,3.17,0,0,1,.52-.27,2.61,2.61,0,0,0,.76-.17c.07,0,.41-.12.77-.2A3.47,3.47,0,0,0,202,108l.19-.05a6.18,6.18,0,0,0,1.3-.41,5.13,5.13,0,0,1,.81-.27,3.31,3.31,0,0,0,1.05-.39,7.62,7.62,0,0,1,1.34-.14c.86,0,2-.14,2.65-.2l2.23-.22a13.65,13.65,0,0,0,2-.32,16.55,16.55,0,0,1,3.43-.15c3.26,0,3.34,0,4.22.63a2.81,2.81,0,0,0,1.9.53c.66,0,1.14.14,1.28.34a3.87,3.87,0,0,0,2,1.66c.09,0,.46.11.92.25l.84.25a2.49,2.49,0,0,1,.15.4,1.36,1.36,0,0,0,.89.9c.91.26,1,.31,1.1.41a3.24,3.24,0,0,1,.42.69,2.5,2.5,0,0,0,1.36,1.48l.27.14h0a4.07,4.07,0,0,1,.14.59A14.51,14.51,0,0,0,234.6,119c.1.16.43.69.73,1.18a14.15,14.15,0,0,0,2,2.64,3.43,3.43,0,0,1,.47.65,16.1,16.1,0,0,1-.28,5.1,24.35,24.35,0,0,0-.3,2.5,9.36,9.36,0,0,1-.2,1.53,2.64,2.64,0,0,0-.27,1,4.78,4.78,0,0,1-.19.66,14.42,14.42,0,0,0-.43,1.65,10.32,10.32,0,0,1-2,4.59,2.51,2.51,0,0,0-.57,1.35,12.25,12.25,0,0,1-.41,1.4,10.51,10.51,0,0,0-.51,1.95,4.21,4.21,0,0,1-.25.73,4.58,4.58,0,0,0-.44,1.63,1.86,1.86,0,0,1,0,.19h0a1.37,1.37,0,0,1-.29.25,2.28,2.28,0,0,1-.25.15l-.06,0c-.32-.3-.39-.36-.39-3.19v-3.11l-.28-.29-.71-.74a5.92,5.92,0,0,0-1.53-1.19l-.12-.06a10,10,0,0,1-.11-1.77,7.08,7.08,0,0,0-.21-2.38,1.75,1.75,0,0,1,0-.34,1.53,1.53,0,0,0-.58-1.44l-.27-.16h-.28a2.19,2.19,0,0,0-1.13.4l-.56.33-.45.26,0,.52-.06.73a1.76,1.76,0,0,1-.37,1.13c-.18,0-.76,0-1.08,0H221.3l-.29.26-.42.38c-.17.15-.19.17-.53.22l-.45,0h-.17a1.55,1.55,0,0,0-.36,0,1.22,1.22,0,0,0-1.19.94,1.48,1.48,0,0,1-.9.31,1.49,1.49,0,0,0-1.63.93,2,2,0,0,1-.3.47l-.68.09a2.46,2.46,0,0,0-2.32,1.48,2.12,2.12,0,0,1-.92.65,1.72,1.72,0,0,1-.5.05,4.29,4.29,0,0,1-.92-.1,3,3,0,0,0-.7-.11,1.54,1.54,0,0,0-1.19.63l0,0h-.42a3.13,3.13,0,0,1-.52,0,1.59,1.59,0,0,0-1-.42,1.45,1.45,0,0,0-1,.51,1.85,1.85,0,0,1-1,.65,1,1,0,0,1-.54-.24,2.09,2.09,0,0,0-1.17-.47,1.07,1.07,0,0,0-1,.55,1.09,1.09,0,0,0-.08.87,5.61,5.61,0,0,1-.56,1,2.8,2.8,0,0,0-.66,2.06,6.58,6.58,0,0,0,.3,1.62,4,4,0,0,1,.17,1,2,2,0,0,0,.48,1.51,6.54,6.54,0,0,0,.27,1,3.87,3.87,0,0,1,.17.78,5.83,5.83,0,0,0,1,2.57,2,2,0,0,1,.09.73,11.43,11.43,0,0,0,.23,1.88c.08.33.23,1.34.34,2.3a14.49,14.49,0,0,0,.42,2.3,4.79,4.79,0,0,1,.17.9,9.07,9.07,0,0,0,.19,1.17,2.12,2.12,0,0,0,.27,2.42.66.66,0,0,1,.13.36,2.72,2.72,0,0,0,.4,1.2,1.84,1.84,0,0,1,.1.35,53.59,53.59,0,0,0,1.93,5.74c.3.84.57,1.7.64,2a5.43,5.43,0,0,0,.53,1.36,2.3,2.3,0,0,1,.13.25,2,2,0,0,0,.31.73,9,9,0,0,1,.09,1.36c.08,2.87.48,4.71,1.32,6.15a3.64,3.64,0,0,1,.24.82c.24,1.36.31,1.77,1,2.26a3.31,3.31,0,0,1,.59,2.32,3.71,3.71,0,0,0-.51.75,8,8,0,0,1-2.38,1.5c-1.58.8-2.27,1.2-2.61,1.91a4.47,4.47,0,0,1-.59.45,3.18,3.18,0,0,0-1.28,1.29,2,2,0,0,1-.2.33,21,21,0,0,0-1.69,3.05,8,8,0,0,0-.61,1.62,19.36,19.36,0,0,0-.12,5.23,8.59,8.59,0,0,0-.14,1.61c0,1.08-.18,1.32-.18,1.33-.34.44-.34,1-.24,2.25.06.79.11,1.73.12,2.11a2.11,2.11,0,0,0,.63,1.74,21.13,21.13,0,0,1,.21,2.2,3.64,3.64,0,0,0,.33,1.7,28.15,28.15,0,0,1,.66,2.77,12,12,0,0,1,.35,3.14,8.3,8.3,0,0,1-.34,2.87,15.76,15.76,0,0,0-.51,3.77c-.06,1.12-.09,2.85-.08,3.88,0,1.53,0,1.6-.16,2a6,6,0,0,1-.69,1.18c-.36.46-.92,1.24-1.25,1.74a9.45,9.45,0,0,1-.63.87h-.28a3.9,3.9,0,0,0-2.62.7,1.57,1.57,0,0,0-.57-.11h-.18a1.3,1.3,0,0,0-.9.46,1.22,1.22,0,0,0-.25.87,2.15,2.15,0,0,0-.32,1,1.89,1.89,0,0,0-.26,1.44.87.87,0,0,1-.07.47,2,2,0,0,0-.13,1.31c0,.33.07,1.39.08,3s0,3.38,0,3.78,0,1.06,0,1.71a4.09,4.09,0,0,0,.2,1.94,1,1,0,0,1,0,.56,1.42,1.42,0,0,0,.11,1.46,3.36,3.36,0,0,1,0,1.34,3.11,3.11,0,0,0-.19,1.56,6,6,0,0,1-.11,1.41c-.12.63-.31,2.15-.42,3.25-.13,1.27-.27,2.55-.33,3s-.19,1.55-.29,2.38c-.28,2.47-.54,4.31-.63,4.65a1.4,1.4,0,0,1-.19.35,2.3,2.3,0,0,0-.49.88l-.07.08a3.64,3.64,0,0,0-1,2.56c.15,1,1.08,1.13,1.64,1.19a5.3,5.3,0,0,1,.77.13,8.13,8.13,0,0,0,2.43.44h.21a2.83,2.83,0,0,0,1.21,1.22,2.51,2.51,0,0,0,1.44.49c.17,0,.38,0,.67,0l.48,0c.11,0,.13,0,.4.14l.1.05-.77.15a5.41,5.41,0,0,0-3.83,2,2.65,2.65,0,0,0-.52,1.86,4.71,4.71,0,0,1-.74,2.55,7.66,7.66,0,0,0-1.06,3.52,7.56,7.56,0,0,1-.31,1.57,8,8,0,0,0-.39,2.78c-.06,2.07-.06,2.07-.89,3-.68.73-2.27,3-2.26,4a17.14,17.14,0,0,1-.87,2.76,5,5,0,0,0-.44,1.56c0,.33-.16,1.11-.3,1.75a4.83,4.83,0,0,0-.11,2.23,16.56,16.56,0,0,1,.07,2.16c0,1.56,0,1.56-.67,2.53s-.89,2.11-1,4.59a10.1,10.1,0,0,0,.29,4.19,3.36,3.36,0,0,0,1.18,1.8,8.38,8.38,0,0,0,2.77,1.6,1.26,1.26,0,0,1,.18.32,14.75,14.75,0,0,0,1.13,1.8c1,1.36,1.35,1.86,1.78,2a1.73,1.73,0,0,0,.74.91,1,1,0,0,1,.25.2,1.73,1.73,0,0,0,.92,1.27,1.81,1.81,0,0,1,.37.32,9.09,9.09,0,0,0,.74.87,2.08,2.08,0,0,1,.19.23,2.43,2.43,0,0,0,.74,1,1.41,1.41,0,0,1,.17.19,1.55,1.55,0,0,0,.86,1.08.81.81,0,0,1,.17.15,5.63,5.63,0,0,0,2.41,1.75,2.91,2.91,0,0,0,1.15.21c.41,0,.94-.05,2.06-.17l.29,0c.09,0,.13,0,.44.15l1.23.56a4.26,4.26,0,0,1,.74.42,7.41,7.41,0,0,0,1.17.73,27.52,27.52,0,0,1,3.55,2.1,9,9,0,0,1,.73.55,3,3,0,0,1,.08.29,1.9,1.9,0,0,1,0,1.07c0,.15-.06.31-.08.44l-.17,0a2.71,2.71,0,0,0-1.25.33l-.28-.3h-3a7.28,7.28,0,0,0-2.42.21,3.71,3.71,0,0,0-1.19-.13c-.79,0-2,.07-3.72.22-.57,0-1,.07-1.29.07a4.84,4.84,0,0,1-1.62-.27,1.76,1.76,0,0,0-.53-.09,1.05,1.05,0,0,0-1.09,1,2,2,0,0,0,.67,1.41c.06.46.34.92,1.18,1.07a2.62,2.62,0,0,1,1,.63,1.68,1.68,0,0,0,.78.8l.1.09a8,8,0,0,0,1.6,1.1,33.32,33.32,0,0,1,3.18,2,3.63,3.63,0,0,1,1.36,2.06c.11.63.11.63-.34,1.17s-.41.5-1.49.64c-.51.07-1.53.24-2.21.37a6.73,6.73,0,0,1-1.29.17c-.24,0-.53,0-.93-.07s-1-.09-1.26-.09a1.69,1.69,0,0,0-.38,0l-.33,0a14.68,14.68,0,0,0-2.55-.33,2.91,2.91,0,0,0-.83.11c-.26-.29-.73-.42-2.12-.57-.81-.08-1.58-.16-1.79-.21a3.4,3.4,0,0,0-1.1-.3,8.22,8.22,0,0,1-2.41-.7,9.65,9.65,0,0,0-2.11-.77c-1.07-.27-1.07-.27-1.39-.62a3.7,3.7,0,0,0-1.42-1c-.5-.17-.64-.25-1.22-1.13a6.45,6.45,0,0,0-1.56-1.75,24.53,24.53,0,0,1-3.62-3.45,3.36,3.36,0,0,0-2.62-1.86c-1.15-.32-1.38-.53-1.73-1a12.93,12.93,0,0,0-.89-1.15,2.37,2.37,0,0,1-.64-1.79,18.87,18.87,0,0,0-.3-2,7.36,7.36,0,0,1-.12-2.05,9.62,9.62,0,0,1,1-4.12,4.64,4.64,0,0,0,.53-3.35,4.81,4.81,0,0,0-1.16-2.88c-.32-.43-.32-.43-.32-.82a1.53,1.53,0,0,1,.18-.83,2,2,0,0,0-.59-2.92c-.55-.48-.62-.55-.62-1.55a2.47,2.47,0,0,0-.43-1.78,4.88,4.88,0,0,1-.37-1.51,2.87,2.87,0,0,1,.13-.73,3.87,3.87,0,0,0-.12-2.62,3.17,3.17,0,0,0-1-1.66,3,3,0,0,1-.29-.3,2.38,2.38,0,0,1-.08-.4c-.07-.42-.22-1.17-.36-1.66s-.33-1.32-.46-1.91a24.64,24.64,0,0,0-.76-2.87,1.08,1.08,0,0,0-1-.6,1.49,1.49,0,0,0-1.3,1.55,1.58,1.58,0,0,1-.19.42c-.13.21-.19.3-.75.58a2.28,2.28,0,0,1-1,.3.39.39,0,0,1-.41-.24,1.77,1.77,0,0,0-1.5-1,1.63,1.63,0,0,0,.71-.81,1.16,1.16,0,0,0-.3-1.29,2.8,2.8,0,0,0-1.21-.56,3,3,0,0,1-.41-.15s0,0,0-.07c0-.32,0-.42.52-.74a6.41,6.41,0,0,0,1.15-.86l.27-.29.38-.41-.15-.54-.23-.84a7.3,7.3,0,0,1-.14-2.28,3.9,3.9,0,0,0,.27-1.4,3.65,3.65,0,0,1,.24-1.09,6.55,6.55,0,0,0,.44-1.74,10.42,10.42,0,0,1,.29-1.45c.29-.94.7-5.24.36-6.11a3.23,3.23,0,0,1,0-1.41,3.83,3.83,0,0,0,0-1.54h0a4.17,4.17,0,0,1,.58-.16,15.91,15.91,0,0,0,1.56-.46c.44-.16,1.24-.41,1.76-.55a6.18,6.18,0,0,0,3.2-1.65,2.26,2.26,0,0,0,.75-1.29,2,2,0,0,1,.11-.27,6.74,6.74,0,0,0,.34-2.87c0-1,.06-1.7.08-1.92a9.15,9.15,0,0,0,.25-.95c.08-.38.17-.71.2-.79a2.77,2.77,0,0,0,.18-.93,4.65,4.65,0,0,1,.39-1.2c.38-.76.21-8-.07-8.67-.21-.48-.25-1.13-.18-4.74a7,7,0,0,0-.28-2.14,17,17,0,0,1-.55-3.34,15.31,15.31,0,0,0-1.19-4.22,6.12,6.12,0,0,0-.64-1.34,3.6,3.6,0,0,1,0-.48,7.72,7.72,0,0,1,.11-1.07,1.93,1.93,0,0,0-.45-1.89,2.86,2.86,0,0,1-.32-.62c-.09-.53-.26-1.42-.42-2.12a4.35,4.35,0,0,1-.08-.74c0-1.42-1-1.46-1.13-1.46a4.91,4.91,0,0,0-2,.69h-.11l-.08-.1c-.25-.31-.76-.88-1.12-1.27a4.69,4.69,0,0,0-2.19-1.44,13.63,13.63,0,0,1-1.55-.72,15,15,0,0,0-2.36-1l-1.13-.4.14-.28a3.46,3.46,0,0,0,0-2.95c0-.15.13-.39.2-.56l.36-1,.06-.17v-.18l0-2.36,0-2.37v-.3l-.17-.25-.32-.46a2.31,2.31,0,0,1-.26-.71,9.72,9.72,0,0,0-.33-1.31,3.7,3.7,0,0,1-.13-.44,1.5,1.5,0,0,0-.58-1c0-.11,0-.23,0-.29a9.86,9.86,0,0,0-.21-1.84c-.13-.57-.11-.66-.06-.85s.65-2.65-.65-3.14a1.14,1.14,0,0,0-.42-.08c-1,0-2.8,1.85-3.51,2.64s-.79.89-1.4.9a4.14,4.14,0,0,1-.83-.08,1.75,1.75,0,0,0-.62-.13,2,2,0,0,0-1.32.68,6.58,6.58,0,0,1-.59.47,3.69,3.69,0,0,0-1.13,1.15,4,4,0,0,1-.59.66,3.72,3.72,0,0,0-2.55-.9h-.06c0-.06,0-.13,0-.22a2.61,2.61,0,0,0-.81-1.68l-.35-.37-.21-.22c0-.13,0-.39,0-.77v-.78l.37-.43a26,26,0,0,1,2.56-2.55,6.35,6.35,0,0,0,1.6-2.05,21,21,0,0,1,1.82-2.84,3.07,3.07,0,0,0,.57-1.17,3.48,3.48,0,0,1,.57-.74,1.22,1.22,0,0,0,.7-1.09c0-.79-.73-1.17-1.13-1.38a2.75,2.75,0,0,0-1.25-.42,1.1,1.1,0,0,0-1,.73,14,14,0,0,1-1.35,1.36.55.55,0,0,1-.16-.1,3.77,3.77,0,0,0-1.25-1,4.44,4.44,0,0,0-2-.47,4.86,4.86,0,0,0-.67,0,1.49,1.49,0,0,0,.1-.53c0-.19-.07-1.12-1.49-1.12h0a18.76,18.76,0,0,1-.15-2c-.06-1.49,0-1.69.43-2.3.2-.31.53-.84.72-1.18a6.07,6.07,0,0,1,.53-.77,2.18,2.18,0,0,0,.56-.9,9.18,9.18,0,0,1,1.63-1.74,3.26,3.26,0,0,0,1-.62c.28-.22,1.11-.79,1.89-1.3a6.47,6.47,0,0,0,2.53-2.45,14.05,14.05,0,0,0,.8-2.59,11.07,11.07,0,0,1,2.24-3.88,14.06,14.06,0,0,0,1.15-1.53,10.87,10.87,0,0,1,.92-1.21,4.27,4.27,0,0,0,.54-.63l.34-.23a12.07,12.07,0,0,0,1.4-1.11,4.45,4.45,0,0,1,.88-.65,3,3,0,0,0,1.3-1.1,1.59,1.59,0,0,0,.33-1.52c-.28-.71-1-.86-2.19-1.12-.45-.1-.92-.3-1-1.54,0-.77-.05-1.5-1-1.8a1,1,0,0,1-.1-.46,3.07,3.07,0,0,0-.31-1.32,5.86,5.86,0,0,1-.34-2.32,4.22,4.22,0,0,1,.06-1.45,4.21,4.21,0,0,0,.14-2.09,4.16,4.16,0,0,0-.43-1.88,2,2,0,0,1,0-.45c0-.63.31-1.38,1.89-3.38a10.55,10.55,0,0,0,1-1.77,14.36,14.36,0,0,1,2.1-3.61,1.46,1.46,0,0,0,.94-.93c0-.06.16-.36,1-.9l.1-.07a5.53,5.53,0,0,0,1.54-1.44l.12-.14a12.06,12.06,0,0,0,1.2-1.67,6.48,6.48,0,0,1,.51-.79,4,4,0,0,0,.68-1.38,15.55,15.55,0,0,1,.83-1.89,7.39,7.39,0,0,1,1.38-2,10.7,10.7,0,0,1,2.57-1.92c1.41-.54,4.19-3,5-3.76.53-.48.91-.81,1-.89a9.9,9.9,0,0,0,.93-.72c.36-.3.78-.63.94-.74a8,8,0,0,0,2.12-2.72,1.25,1.25,0,0,1,.08-.19,1.49,1.49,0,0,0,.42-.75,13.28,13.28,0,0,1,1.41-2c.34-.38.92-1.06,1.29-1.51a7.57,7.57,0,0,1,.85-.89,2,2,0,0,0,.9-1.16,3.38,3.38,0,0,1,.13-.4,4.22,4.22,0,0,0-.07-2.62,15,15,0,0,0-3-3.37,3.3,3.3,0,0,1-.59-.67,14.83,14.83,0,0,0-2.73-4c-.45-.49-1.14-1.29-1.54-1.79a10.26,10.26,0,0,0-1.61-1.58l-.06,0,.5-.14a6.34,6.34,0,0,1,1.57-.19,2.83,2.83,0,0,1,.49,0,1.38,1.38,0,0,0,.59.13,2.42,2.42,0,0,0,1-.25c.18-.08.27-.12,1.35-.12l2.54,0,5.93.12,1.3,0c.82,0,2.35,0,2.35-1.42a3,3,0,0,0-1.17-2.15,10.22,10.22,0,0,0-2.38-1.41,1.63,1.63,0,0,1-.4-.24,6.55,6.55,0,0,0,2.42-2.24,1.9,1.9,0,0,1,.82-.12h.34l.2.21a2.42,2.42,0,0,1,.19.23l0,.08-.23.38-.44.72.64.56.32.28a1.7,1.7,0,0,0,1,.53h.07c1.18,0,1.26-1.35,1.31-2.16s.08-2.38.08-5.26c0-1.6,0-2.81,0-3.71h.8m1-1h-2.81c0,.92,0,2.32,0,4.71,0,5.31-.07,6.42-.39,6.42h0a1.29,1.29,0,0,1-.45-.28l-.32-.28.23-.38c.36-.59.3-.91-.27-1.52s-.5-.53-1.27-.53c-1,0-1.53.22-1.73.69a5.51,5.51,0,0,1-2.15,1.85c-.5.13-.66.44-.53,1a2.43,2.43,0,0,0,1.33,1.05,8.9,8.9,0,0,1,2,1.24,2,2,0,0,1,.77,1.36c0,.31-.22.42-1.35.42l-1.27,0-5.94-.12-2.55,0a3.65,3.65,0,0,0-1.75.21,1.49,1.49,0,0,1-.55.16.38.38,0,0,1-.18,0,2.36,2.36,0,0,0-.9-.12,7.24,7.24,0,0,0-1.86.23c-.42.12-.9.26-1.08.29a.44.44,0,0,0-.38.35c-.13.52,0,.84.73,1.33a9.32,9.32,0,0,1,1.41,1.4c.41.51,1.12,1.34,1.57,1.83a13.93,13.93,0,0,1,2.58,3.77,4.12,4.12,0,0,0,.83,1A14.16,14.16,0,0,1,179,125a3.53,3.53,0,0,1,0,1.78,4.34,4.34,0,0,0-.17.55,1.08,1.08,0,0,1-.46.54,7.17,7.17,0,0,0-1.09,1.1c-.38.46-1,1.13-1.26,1.47a11,11,0,0,0-1.64,2.49.46.46,0,0,1-.16.27,1.54,1.54,0,0,0-.31.56,7.27,7.27,0,0,1-1.74,2.23c-.21.14-.66.5-1,.8a8,8,0,0,1-.82.64c-.1.06-.62.5-1.15,1a22,22,0,0,1-4.68,3.57,11.33,11.33,0,0,0-2.93,2.16,8.31,8.31,0,0,0-1.55,2.28,16,16,0,0,0-.9,2.07,3,3,0,0,1-.46,1,6.81,6.81,0,0,0-.65,1,11,11,0,0,1-1.09,1.5,5.13,5.13,0,0,1-1.56,1.46A3.34,3.34,0,0,0,154,154.8c-.07.17-.19.32-.27.32-.49,0-1.57,1.64-2.74,4.15a9.77,9.77,0,0,1-.88,1.57c-1.59,2-2.12,3-2.12,4a1.82,1.82,0,0,0,.18,1,4.15,4.15,0,0,1,.28,1.44,3.31,3.31,0,0,1-.07,1.64,4.68,4.68,0,0,0-.13,1.85,6.28,6.28,0,0,0,.47,2.76,2.11,2.11,0,0,1,.19.83c0,.7.31,1.29.74,1.4s.36.11.38.89c.06,1.42.63,2.23,1.76,2.48,1.64.36,1.71.42,1.25,1.1a2,2,0,0,1-.87.74,5.21,5.21,0,0,0-1.17.83,11.1,11.1,0,0,1-1.26,1,2.45,2.45,0,0,0-.61.46,2.41,2.41,0,0,1-.45.54,11.45,11.45,0,0,0-1,1.36,13.06,13.06,0,0,1-1,1.4,11.89,11.89,0,0,0-2.49,4.38,13.49,13.49,0,0,1-.7,2.31,5.45,5.45,0,0,1-2.19,2.07c-.75.49-1.62,1.09-1.95,1.34a2.8,2.8,0,0,1-.71.44,6.87,6.87,0,0,0-2.33,2.48,1.89,1.89,0,0,1-.34.47,7,7,0,0,0-.65.94c-.17.3-.48.81-.69,1.13A3.87,3.87,0,0,0,134,205c.11,2.71.21,2.94,1.19,2.94.27,0,.49.05.49.12a1.77,1.77,0,0,1-.6.94c-.37.35-.38.62,0,.85a.42.42,0,0,0,.25.08,2.11,2.11,0,0,0,.61-.16,4,4,0,0,1,1.33-.24,3.42,3.42,0,0,1,1.55.36,2.81,2.81,0,0,1,.87.62,1.52,1.52,0,0,0,1.11.59l.15,0a9,9,0,0,0,2-2c0-.07,0-.1.11-.1a2.29,2.29,0,0,1,.78.31c.65.34.75.53.38.72a3.29,3.29,0,0,0-1,1.42,2,2,0,0,1-.39.76,22,22,0,0,0-1.9,3,5.36,5.36,0,0,1-1.38,1.77,27.1,27.1,0,0,0-2.64,2.64l-.6.71v1.15c0,.93,0,1.19.2,1.36l.65.69a1.64,1.64,0,0,1,.54,1.13c.12.88.33,1.09,1.09,1.09a2.68,2.68,0,0,1,1.92.7,1,1,0,0,0,.52.34c.38,0,.94-.44,1.5-1.19a4.1,4.1,0,0,1,.79-.86,5.68,5.68,0,0,0,.79-.6c.36-.32.5-.43.66-.43a.84.84,0,0,1,.27.07,4.37,4.37,0,0,0,1.17.14c1,0,1.15-.11,2.15-1.24a8.14,8.14,0,0,1,2.76-2.3h.05c.21.08.23,1.22,0,2a2.43,2.43,0,0,0,.05,1.31,8.88,8.88,0,0,1,.18,1.62c0,.74,0,.83.29,1a.62.62,0,0,1,.29.38,3.24,3.24,0,0,0,.18.71,8.7,8.7,0,0,1,.28,1.14,3.24,3.24,0,0,0,.42,1.09l.32.47,0,2.37,0,2.36-.36,1c-.34.92-.35,1-.17,1.32a2.44,2.44,0,0,1,0,2.11,2.62,2.62,0,0,1-.4.67c-.22.13-.14.51.13.69a18.85,18.85,0,0,0,1.85.7,14.58,14.58,0,0,1,2.15.88,14.41,14.41,0,0,0,1.7.8,3.73,3.73,0,0,1,1.82,1.19c.38.41.87,1,1.08,1.21.34.43.43.48.88.48a1,1,0,0,0,.64-.17,4.16,4.16,0,0,1,1.49-.52c.07,0,.13.2.13.46a5.32,5.32,0,0,0,.11,1c.15.68.33,1.57.41,2.07a3.32,3.32,0,0,0,.49,1c.39.57.41.64.3,1.07a8.29,8.29,0,0,0-.14,1.28c0,.65,0,.87.19,1.09a5,5,0,0,1,.51,1.09,14.64,14.64,0,0,1,1.14,4,17.86,17.86,0,0,0,.59,3.52,6,6,0,0,1,.24,1.85c-.08,3.74,0,4.46.26,5.16a50.38,50.38,0,0,1,.1,7.83,5.18,5.18,0,0,0-.49,1.63,1.84,1.84,0,0,1-.11.58,8,8,0,0,0-.25,1,6.37,6.37,0,0,1-.23.87,15.44,15.44,0,0,0-.12,2.19,6.27,6.27,0,0,1-.24,2.44,2,2,0,0,0-.21.61,2.06,2.06,0,0,1-.49.71,5.27,5.27,0,0,1-2.73,1.36c-.54.15-1.36.4-1.83.57s-1.11.36-1.44.43c-1.22.26-1.52.56-1.34,1.36a2.87,2.87,0,0,1,0,1.14,4,4,0,0,0,0,2,21.63,21.63,0,0,1-.38,5.46,11.28,11.28,0,0,0-.33,1.63,5.6,5.6,0,0,1-.35,1.44,4.56,4.56,0,0,0-.33,1.43,3.79,3.79,0,0,1-.18,1,6.69,6.69,0,0,0,.07,3l.23.85-.27.29a5.61,5.61,0,0,1-.93.69,1.64,1.64,0,0,0-1,1.59c0,.66.23.9,1.12,1.17a3.21,3.21,0,0,1,.81.33c.23.2-.24.64-.7.64s-.61.1-.76.48c-.26.68.1,1,1.3,1.19.76.11.81.14,1.05.58a1.38,1.38,0,0,0,1.28.75,3.28,3.28,0,0,0,1.43-.41,2.34,2.34,0,0,0,1.15-.95,2.07,2.07,0,0,0,.34-.9c0-.28.18-.6.3-.6a.08.08,0,0,1,.07.05,24.73,24.73,0,0,1,.68,2.63c.14.64.35,1.52.47,2s.27,1.14.33,1.56a1.59,1.59,0,0,0,.67,1.27,2.2,2.2,0,0,1,.76,1.21,2.89,2.89,0,0,1,.13,2,3.8,3.8,0,0,0-.18,1.05,4.71,4.71,0,0,0,.63,2.17c.13.11.17.39.17,1.11a2.36,2.36,0,0,0,1,2.3c.75.66.79.87.36,1.71a2.52,2.52,0,0,0-.29,1.29,1.73,1.73,0,0,0,.51,1.41,3.86,3.86,0,0,1,1,2.42,3.71,3.71,0,0,1-.44,2.8,10.64,10.64,0,0,0-1.13,4.5,8.21,8.21,0,0,0,.14,2.31,18,18,0,0,1,.28,1.9,3.32,3.32,0,0,0,.89,2.36,12,12,0,0,1,.81,1,3.31,3.31,0,0,0,2.29,1.45c1.27.34,1.52.51,2,1.39a24.06,24.06,0,0,0,3.88,3.75,5.48,5.48,0,0,1,1.33,1.5c.65,1,.94,1.26,1.73,1.53a2.74,2.74,0,0,1,1,.74c.5.55.56.58,1.88.92a9.06,9.06,0,0,1,1.84.65,8.91,8.91,0,0,0,2.8.84,2.61,2.61,0,0,1,.74.18c.19.12.3.14,2.18.33a5.7,5.7,0,0,1,1.5.27.78.78,0,0,0,.66.32,1.11,1.11,0,0,0,.35-.06,1.75,1.75,0,0,1,.54-.07,14.11,14.11,0,0,1,2.36.31,3.32,3.32,0,0,0,.57.07.33.33,0,0,0,.15,0l.19,0c.24,0,.68,0,1.15.08a10.17,10.17,0,0,0,1,.07,7.72,7.72,0,0,0,1.47-.18c.71-.13,1.68-.3,2.16-.36,1.3-.18,1.54-.29,2.12-1a1.87,1.87,0,0,0,.55-2,4.6,4.6,0,0,0-1.77-2.71,34.11,34.11,0,0,0-3.27-2.06,7.19,7.19,0,0,1-1.35-.9,1.2,1.2,0,0,0-.43-.33c-.06,0-.2-.15-.29-.34a3.21,3.21,0,0,0-1.68-1.16c-.36-.06-.4-.11-.37-.39s0-.33-.21-.38a.86.86,0,0,1-.46-.72s0,0,.09,0a.8.8,0,0,1,.23,0,5.83,5.83,0,0,0,1.93.32c.38,0,.81,0,1.37-.07,1.67-.14,2.88-.21,3.64-.21a2.58,2.58,0,0,1,.9.09.54.54,0,0,0,.27.08,1,1,0,0,0,.37-.1,7,7,0,0,1,2.07-.15h2.54l.28.31c.18.19.32.29.45.29s.23-.09.35-.27.31-.29,1-.36c.92-.09.92-.09,1.14-1.28a2.85,2.85,0,0,0,0-1.49c-.16-.65-.18-.68-1.19-1.41a28.47,28.47,0,0,0-3.69-2.19,6.45,6.45,0,0,1-1-.61,5.15,5.15,0,0,0-1-.57l-1.18-.54a1.82,1.82,0,0,0-.87-.25l-.39,0c-1,.11-1.58.17-2,.17a1.92,1.92,0,0,1-.8-.15,4.85,4.85,0,0,1-1.91-1.33,1.65,1.65,0,0,0-.55-.51c-.22-.11-.35-.27-.35-.43a1.45,1.45,0,0,0-.46-.69,1.59,1.59,0,0,1-.46-.61,1.68,1.68,0,0,0-.43-.62,8.16,8.16,0,0,1-.65-.76,2.6,2.6,0,0,0-.66-.6c-.3-.19-.45-.37-.45-.54a1.3,1.3,0,0,0-.72-.93c-.17-.11-.32-.28-.32-.39s-.33-.61-.53-.61-.32-.19-1.39-1.67a14.08,14.08,0,0,1-1-1.65,1.36,1.36,0,0,0-.65-.78,7.63,7.63,0,0,1-2.52-1.44,2.42,2.42,0,0,1-.9-1.36,9.14,9.14,0,0,1-.24-3.84c.13-2.27.35-3.31.87-4.09.77-1.18.8-1.25.83-3.06a17,17,0,0,0-.09-2.36,3.91,3.91,0,0,1,.11-1.85c.13-.64.27-1.47.31-1.85a4,4,0,0,1,.34-1.21,16.17,16.17,0,0,0,1-3.18,9.57,9.57,0,0,1,2-3.36c1-1.1,1.09-1.31,1.15-3.61a7.12,7.12,0,0,1,.33-2.48,8.52,8.52,0,0,0,.37-1.82,6.67,6.67,0,0,1,.94-3.14,5.68,5.68,0,0,0,.85-3,1.7,1.7,0,0,1,.33-1.28c.64-.88,1.49-1.3,3.19-1.6s2-.47,2-.91-.41-.83-1.06-1.17a1.65,1.65,0,0,0-.86-.25l-.57,0-.57,0a1.58,1.58,0,0,1-.93-.35,1.94,1.94,0,0,1-.81-.76c-.2-.47-.46-.61-1.13-.61a7.17,7.17,0,0,1-2.07-.38,5.31,5.31,0,0,0-1-.19c-.63-.06-.71-.1-.75-.33a2.72,2.72,0,0,1,.67-1.7,1.06,1.06,0,0,0,.34-.51,1.19,1.19,0,0,1,.29-.52,2.27,2.27,0,0,0,.39-.75c.11-.45.39-2.46.65-4.79.1-.82.22-1.89.28-2.37s.21-1.82.33-3,.31-2.6.41-3.17a6.9,6.9,0,0,0,.12-1.69,2.15,2.15,0,0,1,.11-1.06,3.6,3.6,0,0,0,0-2.25.45.45,0,0,1-.06-.55,1.9,1.9,0,0,0,0-1.4,3.65,3.65,0,0,1-.1-1.47c0-.64,0-1.44,0-1.79s0-2,0-3.75-.06-3.18-.11-3.26a1,1,0,0,1,.1-.66,1.88,1.88,0,0,0,.12-1,.89.89,0,0,1,.1-.72,1.07,1.07,0,0,0,.17-.52,1.16,1.16,0,0,1,.17-.53,1,1,0,0,0,.15-.54c0-.22,0-.28.26-.31h.06a.6.6,0,0,1,.44.2.41.41,0,0,0,.3.15c.18,0,.36-.15.46-.41s.89-.51,2-.53c.81,0,.87-.06,1.73-1.32.35-.51.89-1.27,1.21-1.68a7,7,0,0,0,.84-1.44,5.2,5.2,0,0,0,.23-2.43c0-1,0-2.66.08-3.8a14.82,14.82,0,0,1,.49-3.58,9.25,9.25,0,0,0,.37-3.12,13,13,0,0,0-.38-3.34,14.93,14.93,0,0,0-.79-3.1,5.14,5.14,0,0,1-.18-1.23c-.16-2.36-.2-2.56-.52-2.86s-.3-.38-.32-1c0-.42-.07-1.39-.12-2.15-.08-1-.07-1.43,0-1.56a3.3,3.3,0,0,0,.4-2,7.24,7.24,0,0,1,.1-1.35.78.78,0,0,0,0-.6,20.14,20.14,0,0,1,.16-4.67,7,7,0,0,1,.52-1.39,22.25,22.25,0,0,1,1.58-2.89,2.76,2.76,0,0,0,.35-.6,3.09,3.09,0,0,1,.9-.81,3.2,3.2,0,0,0,.9-.78c.16-.41.57-.7,2.19-1.52s2.64-1.52,2.83-2a2.7,2.7,0,0,1,.38-.55c.6-.64.08-3.15-.79-3.77-.33-.23-.35-.32-.58-1.62a4.29,4.29,0,0,0-.36-1.14,11.81,11.81,0,0,1-1.19-5.68c0-1.2-.09-1.64-.23-1.84a1,1,0,0,1-.18-.41,1.89,1.89,0,0,0-.27-.58,4.51,4.51,0,0,1-.41-1.07c-.08-.35-.38-1.28-.67-2.07a56.79,56.79,0,0,1-1.89-5.58,2,2,0,0,0-.27-.75,1.71,1.71,0,0,1-.22-.73,1.63,1.63,0,0,0-.36-.9,1.12,1.12,0,0,1-.13-1.35.74.74,0,0,0,.07-.62,6.63,6.63,0,0,1-.18-1.07,5.3,5.3,0,0,0-.24-1.18,13.27,13.27,0,0,1-.35-2c-.1-.91-.26-2-.36-2.41a10.42,10.42,0,0,1-.2-1.68,2.3,2.3,0,0,0-.26-1.26,5,5,0,0,1-.86-2,4.44,4.44,0,0,0-.22-1.1,4.49,4.49,0,0,1-.23-.92.72.72,0,0,0-.23-.45c-.18-.16-.23-.36-.23-.86a4.94,4.94,0,0,0-.22-1.31,5.63,5.63,0,0,1-.25-1.34c0-.63,0-.74.5-1.47s.85-1.57.73-1.77-.07-.23,0-.23a1.32,1.32,0,0,1,.59.28,1.91,1.91,0,0,0,1.12.42,2.58,2.58,0,0,0,1.73-.94c.15-.15.23-.22.33-.22s.19.07.38.21.47.23,1.14.23.87,0,1.19-.37.29-.31.46-.31a2.41,2.41,0,0,1,.47.08,5.32,5.32,0,0,0,1.15.13,2.4,2.4,0,0,0,.89-.13,2.91,2.91,0,0,0,1.41-1.12c.35-.68.6-.84,1.53-.93a6.94,6.94,0,0,0,1-.16,2.4,2.4,0,0,0,.79-1c.1-.26.18-.29.7-.29a2.05,2.05,0,0,0,1.83-.93c.08-.23.13-.31.26-.31l.15,0a2,2,0,0,0,.38,0,5.18,5.18,0,0,0,.56,0,1.65,1.65,0,0,0,1.09-.46l.43-.39h1.38c1.25,0,1.41,0,1.7-.25a2.48,2.48,0,0,0,.75-1.82l.06-.74.56-.33a1.9,1.9,0,0,1,.63-.27h0a1.08,1.08,0,0,1,.11.59,2.05,2.05,0,0,0,.12.74,10.44,10.44,0,0,1,.13,2c0,2.12.11,2.42.82,2.74a5.11,5.11,0,0,1,1.21,1l.71.74v2.71c0,3,.06,3.31.71,3.92a1,1,0,0,0,.71.31,1.5,1.5,0,0,0,.86-.34,1.28,1.28,0,0,0,.71-1.25,3.72,3.72,0,0,1,.35-1.21,4,4,0,0,0,.34-1.1,9.88,9.88,0,0,1,.46-1.68,9.74,9.74,0,0,0,.46-1.67,1.48,1.48,0,0,1,.35-.78,11.26,11.26,0,0,0,2.24-5,13.51,13.51,0,0,1,.39-1.52,4.26,4.26,0,0,0,.24-.93,1.65,1.65,0,0,1,.18-.61,7.72,7.72,0,0,0,.28-1.86,23.78,23.78,0,0,1,.28-2.38c.42-2,.54-4.94.23-5.68a4,4,0,0,0-.67-.95,13.11,13.11,0,0,1-1.86-2.48c-.31-.51-.65-1.05-.75-1.21a13.59,13.59,0,0,1-2-4.51c-.17-1-.25-1.09-.93-1.44a1.56,1.56,0,0,1-.91-1,3.75,3.75,0,0,0-.65-1c-.28-.26-.52-.36-1.51-.64a.39.39,0,0,1-.21-.25c-.18-.6-.41-.94-.65-1l-1-.3c-.41-.12-.88-.25-1-.28a3,3,0,0,1-1.3-1.22,2.38,2.38,0,0,0-2.11-.8,1.87,1.87,0,0,1-1.35-.36c-1.13-.75-1.43-.8-4.77-.8a15.77,15.77,0,0,0-3.69.19,12.84,12.84,0,0,1-1.82.29l-2.25.22c-.6.06-1.77.15-2.6.2a4.68,4.68,0,0,0-1.79.27,2.26,2.26,0,0,1-.72.27,5.88,5.88,0,0,0-1,.34,5.3,5.3,0,0,1-1.05.34,1.52,1.52,0,0,0-.64.23,2.49,2.49,0,0,1-.82.31,9,9,0,0,0-.9.24,1.63,1.63,0,0,1-.51.11,2.52,2.52,0,0,0-1.25.69c0,.05-.18.16-.41.24-.5.16-.86.53-.86.87s-.11.4-.91.72a2.48,2.48,0,0,1-.8.24.39.39,0,0,1-.35-.22,2.92,2.92,0,0,0-1.71-.78h-.25c-.17,0-.18-.06-.15-.26.05-.36.07-2.59,0-3.58a21.33,21.33,0,0,1,.16-2.42,10.64,10.64,0,0,0,.07-3.58,18.1,18.1,0,0,1-.16-3.75Z"/><path class="cls-7" d="M99,383c-10.69,0-20.21-.23-29.09-.61-.79,0-1.59-.12-2.39-.19a4,4,0,0,1,.11-1.24,6.38,6.38,0,0,0,.27-1.2,3.67,3.67,0,0,1,.67-1.62c.28-.4.3-.63.33-6.11,0-4.5,0-5.73-.14-6.3a2.57,2.57,0,0,1-.08-.45.64.64,0,0,1,.08-.13c.29-.44.29-.83.27-2.11s-.08-1.7-.33-2.11a1.26,1.26,0,0,1,.11-1.36,1.65,1.65,0,0,0,.26-1.78,6.77,6.77,0,0,1-.38-2,43.78,43.78,0,0,1,0-4.64c0-.36.12-2.24.18-3.84.06-1.79.15-3.14.18-3.31a6.92,6.92,0,0,0,.14-1.06,25.88,25.88,0,0,0,.06-4.69,6.9,6.9,0,0,1,.31-3.28,8.86,8.86,0,0,0,.29-2,2.59,2.59,0,0,0-.31-1.68,5.46,5.46,0,0,1-.47-2.85,19.93,19.93,0,0,0-.18-2.5,1.78,1.78,0,0,1,0-1.21,1.39,1.39,0,0,0-.06-1.44c-.15-.28-.18-.41-.16-1.88s0-1.59.29-2.1a2,2,0,0,0,.23-1.7,7.36,7.36,0,0,0-.32-1.21,1,1,0,0,1-.1-.64,1.31,1.31,0,0,0,.2-1.79c-.27-.54-.25-.59-.14-.84a1,1,0,0,0-.09-1.1c-.11-.18-.13-.66-.12-2.82,0-1.51,0-3.63,0-4.7s0-3.87.1-6.5a28.22,28.22,0,0,1,.27-4.85c.25-.62.2-.81-.09-1.72s-.31-1.41-.13-1.85a6.59,6.59,0,0,0,.33-1.31,3.66,3.66,0,0,1,.39-1.19,2.3,2.3,0,0,0,.13-2.39,5.32,5.32,0,0,1-.38-2.2,3.45,3.45,0,0,1,.21-1.74,9.13,9.13,0,0,1,.5-1.24,2.49,2.49,0,0,0,.26-1.63,5,5,0,0,0-.54-2.17,3.71,3.71,0,0,1-.41-2.22c0-1.27,0-1.58-.37-2a1,1,0,0,1-.06-.91c.29-.43.22-.73.06-1.33a5.26,5.26,0,0,1,0-2.47,17.79,17.79,0,0,0,.45-3.42,29.13,29.13,0,0,0-.41-4,27.3,27.3,0,0,1,0-4.4,18.56,18.56,0,0,0,.07-4,5,5,0,0,1,.1-1.57,15.5,15.5,0,0,0,0-4.77A19,19,0,0,1,69,242a5.59,5.59,0,0,0-.19-2,6.17,6.17,0,0,1-.14-1.79,26.38,26.38,0,0,1,.36-4.38,1.45,1.45,0,0,0,.21-.77,2.57,2.57,0,0,1,.13-.65,5.09,5.09,0,0,0,.14-1.72s-.3-7.93-.33-8.68a6.07,6.07,0,0,1,.11-1.88,4.13,4.13,0,0,0,0-2.57c-.22-.42-1-1.2-1.5-1.2a6.33,6.33,0,0,1-1.28-.69,2,2,0,0,1-.08-.65c.15,0,.43,0,.82,0h1.58l.13-1.43a19.8,19.8,0,0,0,0-4,8.38,8.38,0,0,0-.47-3.09,9.49,9.49,0,0,0-.63-1.33,1.47,1.47,0,0,1,.32-1.8l.1-.1a.71.71,0,0,0,.42-.25,1.83,1.83,0,0,0,.3-1.35,3.09,3.09,0,0,1,.1-.87,2.81,2.81,0,0,0,.1-1.16,17.5,17.5,0,0,1-.2-4.81,16.57,16.57,0,0,0,.31-6.73,14.82,14.82,0,0,1-.18-2.67c0-3.49.16-8.4.25-8.82a10,10,0,0,0,.13-1.81c0-1.09,0-1.09.41-1.34l.67-.39-.11-1a6.3,6.3,0,0,0-.58-1.9l-.42-.92v-1.52a22,22,0,0,1,.14-2.63,3.49,3.49,0,0,0-.1-2.06,5.73,5.73,0,0,1-.3-3.62,9.56,9.56,0,0,0,.18-1.51,11,11,0,0,0-.29-2.94,26.51,26.51,0,0,1,0-2.9c.06-2.37.09-2.78.22-3a1,1,0,0,0,.16-1.11c0-.08-.05-.15,0-.37a48.19,48.19,0,0,0,.39-6.49,8.05,8.05,0,0,0-.2-2.76c-.09-.28-.31-1.13-.47-1.9a13.91,13.91,0,0,0-.57-2,1.16,1.16,0,0,1-.13-.76,8.66,8.66,0,0,0,.07-1.18,2,2,0,0,1,.12-.7,5,5,0,0,0,.24-2.2,20.13,20.13,0,0,1,.37-3.88,8.52,8.52,0,0,0,.19-1,3.24,3.24,0,0,0-.27-2,9.3,9.3,0,0,0-.5-1.23,7.82,7.82,0,0,1-.35-.76,5.61,5.61,0,0,0-.6-1.12c-.26-.3-.38-.62-.31-1.53l.09-1.13-.58-.56c-.49-.47-.58-.64-.58-1.55a2.71,2.71,0,0,1,.4-1.61,13.36,13.36,0,0,0,1.26-3,10.22,10.22,0,0,1,.56-1.51,3.42,3.42,0,0,0,.5-2.16,3.91,3.91,0,0,0-.25-1.2,4.61,4.61,0,0,1-.29-2.76,1.25,1.25,0,0,0-.11-1.18c-.15-.26-.17-.3.21-.74a1.79,1.79,0,0,0,.44-2.22,2.61,2.61,0,0,1-.19-.91,10.62,10.62,0,0,1,1.72-5.19c.76-1,1-1.59.8-2.49A5.23,5.23,0,0,0,71.1,89a.83.83,0,0,0-.77-.55,2,2,0,0,0-.36,0c-.19,0-.75.1-1.28.13H68.3c-.84,0-1.19-.19-1.25-.29a.94.94,0,0,1,.24-1,5,5,0,0,0,1.32-2.31,4.74,4.74,0,0,1,.15-.86A10.07,10.07,0,0,0,69,82.53a9.59,9.59,0,0,1,.16-1.35,54,54,0,0,0,.4-5.87,9.52,9.52,0,0,0-.13-1.67l-.27-1.28c-.12-.56-.13-.6.16-1.73.18-.7.39-1.64.48-2.09s.32-1.5.52-2.35.41-1.77.45-2,.22-.63.39-.66c.45-.07,6.13-.14,11.46-.14,2.87,0,4.79,0,5.14.06a8.59,8.59,0,0,0,1,.07A4.79,4.79,0,0,0,90,63.33a14.87,14.87,0,0,1,3.75-.21h3.08l1.14-.64,12.67-.08,14.07-.1h.19c.73,0,1.91.05,2.75.12s1.17.1,1.47.1a2.09,2.09,0,0,0,1.06-.26,1.4,1.4,0,0,1,.57-.16.79.79,0,0,1,.6.33,2.14,2.14,0,0,0,1.69.68,5.43,5.43,0,0,0,.64,0c.82-.1,1.29-.15,1.54-.15a.51.51,0,0,1,.33.09,1.29,1.29,0,0,0,.63.2,2,2,0,0,0,.71-.18,7.72,7.72,0,0,0,1-.45c.19-.12.66-.14,2.94-.14,2.7,0,3,0,3.49-.3.24-.15.8-.16,5.09-.16h.33c3.4,0,4.48,0,4.63.12.43.34.43.34,9.32.34,8.23,0,8.65,0,9.15.2a5.15,5.15,0,0,0,2,.27,11.8,11.8,0,0,1,1.92.16,8.67,8.67,0,0,0,1.77.18,6,6,0,0,0,2.94-.64,1.37,1.37,0,0,1,.68-.16,1.79,1.79,0,0,0,1.16-.34c.1-.08.2-.12,1.07-.12s1.3,0,1.69-.34c.13-.1.3-.12,1.68-.12s1.56,0,1.68.12a1.57,1.57,0,0,0,.85.34s.06,0,.11.11a1.12,1.12,0,0,0,1,.42l.89,0,.8,0c.32,0,.35,0,.45.1a2.85,2.85,0,0,0,.7.38.56.56,0,0,1,.16.1c.26.32.28.34,5.36.34,4.8,0,5,0,5.46-.29a3.52,3.52,0,0,1,1.34-.21l.6,0c.78,0,1,.11,1.32.57a2,2,0,0,0,.86.67s.11.12.18.26a9.35,9.35,0,0,0,1,1.25,4.44,4.44,0,0,1,1.09,2,1.85,1.85,0,0,0,.31.88,4.89,4.89,0,0,1,.4.92,9.72,9.72,0,0,0,2.07,4c.39.38.44.5.44.57a1.34,1.34,0,0,1-.35.72,1.18,1.18,0,0,0-.56.63,57.64,57.64,0,0,0-.4,6.88c0,1.22-.1,3-.15,4-.12,2.1-.07,2.29.32,2.44a1,1,0,0,1,.19.19,2.51,2.51,0,0,1-.76.2c-.51.08-1.25.21-1.65.3a2.93,2.93,0,0,1-.53.08.58.58,0,0,1-.29-.09,3.44,3.44,0,0,0-1.33-.24,3.5,3.5,0,0,0-1,.12c-1,.3-1.73.33-7.9.35l-7,0-.11,1a2.12,2.12,0,0,0,.11,1,1.09,1.09,0,0,1,0,.47h0l-.13,0c-.66.18-.71.56-.71,1.14a3.52,3.52,0,0,1-.12.82,7.14,7.14,0,0,0-.27,1.44h-1.81a3.94,3.94,0,0,1,.52-1.73,1.5,1.5,0,0,0,.19-1.39,2.76,2.76,0,0,1-.1-.72,1.31,1.31,0,0,0-.65-1.28,3,3,0,0,1-.52-.55l-.33-.56-5.26,0c-4.67,0-5.12,0-6,.29a4.42,4.42,0,0,1-1.15.17l-.47,0c-.48,0-2.84-.12-5.38-.17s-4.54-.13-4.78-.17a2.09,2.09,0,0,0-.44,0,8,8,0,0,0-1.05.08l-1.75.22a5.21,5.21,0,0,0-3,1.45,23.21,23.21,0,0,1-2.8,2.44,2.94,2.94,0,0,1-.52.2c-.11,0-.45.11-1.25,1.11a6.8,6.8,0,0,1-1,1,7.76,7.76,0,0,1-1.55.8h0a1.85,1.85,0,0,0-.95.57,12.47,12.47,0,0,1-1.14.87,3.52,3.52,0,0,0-1.21,1.27,1.75,1.75,0,0,1-.83.81,3.84,3.84,0,0,0-.94.67,13.05,13.05,0,0,1-1.81,1.26,4.39,4.39,0,0,0-1,.75,7.8,7.8,0,0,1-1.65,1c-.8.4-2.51,1.44-3.82,2.31s-2.4,1.55-2.55,1.62a2.24,2.24,0,0,0-.73.46,34,34,0,0,1-3.43,2.24,9.65,9.65,0,0,0-1.77,1.31,2.74,2.74,0,0,1-.31.31,8.75,8.75,0,0,0-1.48,1c-.64.47-1.66,1.15-2.22,1.48a11.33,11.33,0,0,0-1.46,1,5.42,5.42,0,0,1-.94.59c-.41.21-.93.52-1,.89a8,8,0,0,1-2.07,1.68,4.42,4.42,0,0,0-1,.64,6.48,6.48,0,0,1-.6.42,11.13,11.13,0,0,0-1,.73,1.55,1.55,0,0,1-.5.28,1.44,1.44,0,0,0-.8.48,29.11,29.11,0,0,1-2.44,1.85c-.27.19-1.09.66-1.87,1.07a4.53,4.53,0,0,0-1.8,1.27,10,10,0,0,1-2.27,1.69,8.94,8.94,0,0,0-1.71,1.31,10.71,10.71,0,0,1-1.18.78,19.19,19.19,0,0,0-2.08,1.47,11.38,11.38,0,0,1-1.54,1.08,6.48,6.48,0,0,0-1.29.91c-.33.31-.94.81-1.34,1.14l-.92.73-.1,1.35c0,.6-.08,1.59-.07,2.19a7.07,7.07,0,0,1-.15,1.58,3.61,3.61,0,0,0,.07,2.48,6.92,6.92,0,0,1,.17,3.26,3.22,3.22,0,0,0,.08,2.49,6.84,6.84,0,0,1,0,1.88c0,1.07-.11,3.8-.14,6.08,0,2.68-.12,4.42-.18,4.75a25.69,25.69,0,0,0-.11,3.93c0,2.68,0,3.12-.14,3.58s-.23,1.16-.24,4a15.11,15.11,0,0,1-.21,3.84,4.66,4.66,0,0,0-.11,2.53c.06.35.15,1.92.19,3.6a32.32,32.32,0,0,0,.25,3.82c.22,1,.18,1.08,0,1.5-.31.6-.3.8-.16,1.94a4.73,4.73,0,0,1,0,1.36,3.75,3.75,0,0,0,.12,2.33,3.36,3.36,0,0,1,.15,1.59,8.86,8.86,0,0,1-.21,1.4,8.8,8.8,0,0,0-.26,1.37,2.12,2.12,0,0,0,.28,1.59c.27.52.27.52.06.93l-.43.82.61.49a2.11,2.11,0,0,1,.39,2.21c-.29.57-.28.75-.11,1.67a14.94,14.94,0,0,0,.36,1.52,2,2,0,0,1,0,1.43,6.39,6.39,0,0,0-.17,3.66,16.37,16.37,0,0,1,0,3.31,1.21,1.21,0,0,0,.1,1.14c.11.2.12.22,0,.73a9.09,9.09,0,0,0-.3,3,47.18,47.18,0,0,1,0,4.73,4.85,4.85,0,0,0,.21,2,1.45,1.45,0,0,1,.07,1.07c-.23.4-.28,1-.25,2.69,0,.62,0,1.33,0,1.58s0,1.17-.06,2-.08,2.1-.12,2.77a4.64,4.64,0,0,0,.09,1.84,1.62,1.62,0,0,1,0,.87,3.43,3.43,0,0,0,0,1.34,7.37,7.37,0,0,1,.08,1.38c0,.61,0,2.22,0,3.6a9.59,9.59,0,0,1-.12,2.42c-.37.41-.36.76-.33,2.46a19.44,19.44,0,0,1-.15,3,4.63,4.63,0,0,0-.1,1.49c0,.24.07,1.32.1,2.9s.09,3.34.12,3.82,0,2.52,0,4.74a29.39,29.39,0,0,0,.06,4.83,21.67,21.67,0,0,1,.08,3.59c0,1.59-.06,3.81-.05,4.95a13.77,13.77,0,0,1-.09,2.1c-.11.21-.15.57,0,3a19,19,0,0,1,.09,2.69c-.23.6-.25,16,0,16.85a11.82,11.82,0,0,1,.1,2.22,17.28,17.28,0,0,0,.1,2.39,15.33,15.33,0,0,1,.05,3.15c-.1.17-.18.33-.11,7.46,0,.47,0,1.56-.09,2.44-.13,2-.12,16.5,0,18.92,0,.95.09,2.78.1,4s.07,3.62.14,5.27c.1,2.29.18,7.16.14,8.85a4.36,4.36,0,0,0,.12,1,9.24,9.24,0,0,1-.05,3.13,3.36,3.36,0,0,0-.08,1.55c0,.25.07,2,0,6.15l0,1.15c-.1,5.54-.1,5.54,0,8.19Zm4-293.61c-2.44,0-2.48,0-2.65.21a2.19,2.19,0,0,0-.35,1.05,6.5,6.5,0,0,1-.48,1.4,4.9,4.9,0,0,0-.46,1.36,1.29,1.29,0,0,1-.06.35.91.91,0,0,0,.18,1,9,9,0,0,1,0,3c-.22.65-.23.85.2,1.36.17.2.17.2.12,1.28,0,.74-.11,1.79-.18,2.34l-.06.51c-.2,1.84-.24,2.22,0,2.52l.15.17.3,0a1.41,1.41,0,0,0,.77-.36l.15-.11a3.38,3.38,0,0,0,.82-.67,5.32,5.32,0,0,1,.94-.38c.54-.16.74-.52,1-1.15a5.13,5.13,0,0,1,.64-.44c.42-.25,1.08-.68,1.46-1a19.84,19.84,0,0,1,2.69-1.66c.52-.27,1.3-.72,1.74-1a7.1,7.1,0,0,1,.77-.44,1,1,0,0,0,.83-1,3.27,3.27,0,0,1,.89-.81c.86-.41,2-.89,2.2-.95a3.51,3.51,0,0,0,1-.6,6.31,6.31,0,0,1,.94-.63,3.28,3.28,0,0,0,.79-.53,5.22,5.22,0,0,1,.48-.38,12.14,12.14,0,0,0,1.14-1,5.74,5.74,0,0,1,1.41-1,2.89,2.89,0,0,0,1.28-.94,3.87,3.87,0,0,1,.69-.5c.9-.52,1-.69,1-.81l.09-.25-.16-.22c-.15-.2-.23-.31-2.13-.31a12.4,12.4,0,0,0-2.14.13c-.5.15-2.4.55-3,.64a15,15,0,0,1-1.71.07,26.46,26.46,0,0,1-3-.14C110.45,89.45,105.74,89.36,103,89.36Z"/><path class="cls-6" d="M187.69,62c.45,0,1.18,0,1.4,0a2.21,2.21,0,0,0,.9.4,1.61,1.61,0,0,0,1.36.55l.91,0,.77,0h.16a3.47,3.47,0,0,0,.82.45c.41.47.69.47,5.7.47,4.83,0,5.12,0,5.72-.36a3.64,3.64,0,0,1,1.11-.14l.57,0c.62,0,.66.05.92.37a2.82,2.82,0,0,0,.94.78l.07.1a9.8,9.8,0,0,0,1,1.33,4.32,4.32,0,0,1,1,1.69,2.41,2.41,0,0,0,.4,1.17,4.58,4.58,0,0,1,.34.79,10.16,10.16,0,0,0,2.2,4.21c.14.13.22.22.26.28a1.22,1.22,0,0,1-.13.24,1.76,1.76,0,0,0-.71.84c-.21.48-.36,2.86-.44,7.08,0,1.21-.1,3-.15,4a6.87,6.87,0,0,0,.06,2.38l-1.57.28-.4.08-.1,0a3.84,3.84,0,0,0-1.55-.29,4,4,0,0,0-1.12.15c-.92.28-1.72.31-7.75.33l-6.53,0h-.89l-.1.89-.06.53a2.67,2.67,0,0,0,.1,1.19,1.43,1.43,0,0,0-.83,1.52,3.14,3.14,0,0,1-.09.67,6.35,6.35,0,0,0-.24,1.1h-.8a4.1,4.1,0,0,1,.4-1,2,2,0,0,0,.22-1.78,2.38,2.38,0,0,1-.07-.56,1.79,1.79,0,0,0-.83-1.66,3,3,0,0,1-.41-.42l-.19-.32-.29-.49h-.57l-5,0c-4.72,0-5.18.05-6.16.3a4,4,0,0,1-1,.16l-.43,0c-.54,0-3.18-.12-5.41-.17-2.6-.05-4.41-.13-4.7-.16a2.66,2.66,0,0,0-.52,0,8.47,8.47,0,0,0-1.13.09l-1.73.22a5.68,5.68,0,0,0-3.37,1.64,24.87,24.87,0,0,1-2.63,2.31,2.58,2.58,0,0,1-.41.16c-.2,0-.61.15-1.53,1.29a7,7,0,0,1-.87.93,8.39,8.39,0,0,1-1.36.72,2.3,2.3,0,0,0-1.21.69,12,12,0,0,1-1.08.83,4,4,0,0,0-1.37,1.43,1.28,1.28,0,0,1-.65.63,3.65,3.65,0,0,0-1.06.76,13.15,13.15,0,0,1-1.67,1.17,4.9,4.9,0,0,0-1.11.85,7.83,7.83,0,0,1-1.51.91c-.81.41-2.54,1.46-3.87,2.34s-2.23,1.45-2.47,1.57a2.83,2.83,0,0,0-.89.56,32.81,32.81,0,0,1-3.34,2.18,10.1,10.1,0,0,0-1.89,1.41l-.19.2a11.3,11.3,0,0,0-1.51,1c-.63.46-1.63,1.13-2.18,1.45a11.76,11.76,0,0,0-1.53,1,5,5,0,0,1-.83.52c-.93.46-1.18.87-1.27,1.09a7.9,7.9,0,0,1-1.84,1.48,4.64,4.64,0,0,0-1.14.72,5.89,5.89,0,0,1-.53.37,11.37,11.37,0,0,0-1.09.78,1.21,1.21,0,0,1-.29.17,1.94,1.94,0,0,0-1,.62c-.22.21-1.3,1.06-2.37,1.79-.25.17-1.06.64-1.82,1a5,5,0,0,0-2,1.42,10.25,10.25,0,0,1-2.11,1.54,9.27,9.27,0,0,0-1.79,1.37,10.64,10.64,0,0,1-1.11.73A19.54,19.54,0,0,0,104,130.4a11.13,11.13,0,0,1-1.45,1,6.93,6.93,0,0,0-1.4,1c-.32.29-.92.79-1.31,1.11l-.75.59-.34.27,0,.44L98.64,136c0,.61-.08,1.62-.07,2.23a6.67,6.67,0,0,1-.13,1.45,4.11,4.11,0,0,0,.07,2.77,6.47,6.47,0,0,1,.15,3,3.7,3.7,0,0,0,.12,2.82c0,.26,0,1.11,0,1.64,0,1.08-.11,3.81-.14,6.1,0,2.93-.13,4.42-.17,4.66a22.57,22.57,0,0,0-.12,4c0,2.69,0,3.05-.11,3.42-.23.7-.26,1.41-.26,4.15a14.79,14.79,0,0,1-.19,3.7,5.12,5.12,0,0,0-.13,2.75c0,.3.14,1.79.18,3.54a31.16,31.16,0,0,0,.26,3.91c.18.84.18.85,0,1.17a3,3,0,0,0-.22,2.22,4,4,0,0,1,.05,1.17,4.25,4.25,0,0,0,.13,2.62,2.85,2.85,0,0,1,.13,1.4A8.52,8.52,0,0,1,98,196a9.39,9.39,0,0,0-.27,1.45,2.6,2.6,0,0,0,.33,1.88l.15.3-.08.17-.24.46-.38.73.65.51.28.22a1.63,1.63,0,0,1,.27,1.6,2.46,2.46,0,0,0-.16,2,15.47,15.47,0,0,0,.38,1.58,1.46,1.46,0,0,1,0,1.11,7.12,7.12,0,0,0-.19,3.95,16.69,16.69,0,0,1,0,3,1.71,1.71,0,0,0,.15,1.53l0,0c0,.05,0,.15-.06.34a9.74,9.74,0,0,0-.31,3.12c.07.66.08,1.75,0,4.67a5.33,5.33,0,0,0,.25,2.23,1.17,1.17,0,0,1,.09.62c-.28.5-.35,1.14-.31,3,0,.67,0,1.33,0,1.54s0,1.18-.07,2.05-.08,2.09-.12,2.74a5.17,5.17,0,0,0,.11,2c0,.07.06.16,0,.63a4,4,0,0,0,0,1.56,7.93,7.93,0,0,1,.06,1.23c0,.61,0,2.22,0,3.6,0,.87,0,1.85-.06,2.16-.43.52-.42,1-.4,2.73a19,19,0,0,1-.14,2.88,4.94,4.94,0,0,0-.1,1.7c0,.34.07,1.37.09,2.78s.09,3.3.13,3.85c0,.36,0,2.25,0,4.68a28.89,28.89,0,0,0,.07,4.94,22,22,0,0,1,.07,3.49c0,1.52-.06,3.8-.06,5a17.83,17.83,0,0,1-.07,1.94c-.15.38-.16,1,0,3.21a23.75,23.75,0,0,1,.11,2.53.37.37,0,0,1,0-.07c-.34.89-.21,16.57,0,17.16a12.51,12.51,0,0,1,.09,2.09,18.39,18.39,0,0,0,.12,2.52,16.28,16.28,0,0,1,.06,2.86c-.14.36-.19,1.22-.13,7.63,0,.45,0,1.55-.09,2.4-.13,2-.13,16.55,0,19,0,.85.09,2.65.09,4s.07,3.62.14,5.28c.1,2.28.18,7.14.14,8.79a4.8,4.8,0,0,0,.14,1.14,8.91,8.91,0,0,1-.05,2.9,3.86,3.86,0,0,0-.08,1.74c0,.24.07,1.79,0,6.07l0,1.18c-.1,5.52-.1,5.52,0,8.18v.65l0,1.22c-10.5,0-19.85-.23-28.54-.6-.63,0-1.28-.09-1.92-.15a2.2,2.2,0,0,1,.07-.61,6.87,6.87,0,0,0,.3-1.31,3.17,3.17,0,0,1,.58-1.4c.39-.55.39-.77.42-6.4,0-4.6,0-5.8-.16-6.42l-.05-.23c.35-.55.36-1,.33-2.37a4.35,4.35,0,0,0-.4-2.36.79.79,0,0,1,.1-.82,2.18,2.18,0,0,0,.29-2.3,7.05,7.05,0,0,1-.32-1.84,43.12,43.12,0,0,1,0-4.55c0-.39.12-2.29.18-3.87s.13-2.95.17-3.22a7.87,7.87,0,0,0,.15-1.12,26.39,26.39,0,0,0,.06-4.78,6.39,6.39,0,0,1,.3-3.1,9.42,9.42,0,0,0,.31-2.15,3,3,0,0,0-.39-1.95c-.24-.38-.37-.91-.4-2.58a20.17,20.17,0,0,0-.18-2.58c-.1-.62-.1-.62,0-1a1.87,1.87,0,0,0-.09-1.83c-.09-.17-.12-.24-.11-1.64s0-1.44.24-1.89a2.48,2.48,0,0,0,.27-2,7.62,7.62,0,0,0-.36-1.32,1,1,0,0,1-.06-.21,1.82,1.82,0,0,0,.16-2.24,2.84,2.84,0,0,1-.16-.34l0-.05a1.5,1.5,0,0,0-.1-1.55,22.23,22.23,0,0,1-.06-2.58c0-1.51,0-3.63,0-4.71s0-3.86.1-6.49a39.36,39.36,0,0,1,.23-4.68,2.42,2.42,0,0,0-.08-2.06c-.31-1-.26-1.22-.14-1.51a7.16,7.16,0,0,0,.36-1.44,3.17,3.17,0,0,1,.33-1,2.79,2.79,0,0,0,.12-2.9,6,6,0,0,1-.3-2,3,3,0,0,1,.19-1.55,9,9,0,0,1,.45-1.13,3,3,0,0,0,.34-1.92,5.41,5.41,0,0,0-.58-2.35,3.38,3.38,0,0,1-.37-2c0-1.27,0-1.74-.47-2.33a.62.62,0,0,1,0-.33,1.85,1.85,0,0,0,.14-1.73,4.72,4.72,0,0,1,0-2.22,18.14,18.14,0,0,0,.47-3.55,29.1,29.1,0,0,0-.42-4.06,29.35,29.35,0,0,1,0-4.16,19,19,0,0,0,.09-4.23,4.47,4.47,0,0,1,.09-1.42,16,16,0,0,0,0-4.94,18.86,18.86,0,0,1-.15-2.39,6,6,0,0,0-.22-2.12,6.79,6.79,0,0,1-.12-1.62,28.27,28.27,0,0,1,.32-4.18,2,2,0,0,0,.25-1,2.17,2.17,0,0,1,.1-.49,5.46,5.46,0,0,0,.16-1.9v-.29l-.15-3.91c-.06-1.72-.14-3.73-.17-4.47a5.68,5.68,0,0,1,.09-1.74,4.55,4.55,0,0,0-.07-2.92,3,3,0,0,0-1.81-1.47,6.17,6.17,0,0,1-.76-.37h2.13l.08-.91.09-1a20.33,20.33,0,0,0,0-4,8.94,8.94,0,0,0-.5-3.25,9.75,9.75,0,0,0-.68-1.42c-.28-.42.08-.95.26-1.16a1.23,1.23,0,0,0,.55-.38,2.3,2.3,0,0,0,.42-1.74,2.85,2.85,0,0,1,.09-.69,2.79,2.79,0,0,0,.09-1.44,17.5,17.5,0,0,1-.18-4.55,17.07,17.07,0,0,0,.31-6.94,14.36,14.36,0,0,1-.17-2.57c0-3.37.15-8.12.24-8.72a11.51,11.51,0,0,0,.14-1.95c0-.31,0-.61,0-.78l.17-.1.38-.22.56-.33-.07-.64-.08-.71a7,7,0,0,0-.62-2.06l-.38-.83v-1.41a21.72,21.72,0,0,1,.14-2.56,4,4,0,0,0-.12-2.29,5.29,5.29,0,0,1-.29-3.37,9.9,9.9,0,0,0,.19-1.6,13.4,13.4,0,0,0-.29-3,25.17,25.17,0,0,1,0-2.8c0-1.22.06-2.49.12-2.68a1.5,1.5,0,0,0,.23-1.56l0-.06a50.88,50.88,0,0,0,.41-6.64,8.54,8.54,0,0,0-.22-2.93c-.09-.27-.31-1.12-.46-1.86a13.91,13.91,0,0,0-.61-2.12.67.67,0,0,1-.09-.48,9.22,9.22,0,0,0,.08-1.27,1.83,1.83,0,0,1,.06-.47,5.34,5.34,0,0,0,.29-2.43,20.67,20.67,0,0,1,.34-3.71,7.61,7.61,0,0,0,.21-1.11,3.75,3.75,0,0,0-.29-2.19,6.52,6.52,0,0,0-.55-1.34c0-.08-.17-.35-.31-.69a6.11,6.11,0,0,0-.68-1.25c-.12-.14-.26-.29-.19-1.16l.07-.9,0-.47-.34-.33-.41-.4c-.39-.37-.43-.41-.43-1.18a2.24,2.24,0,0,1,.35-1.39,13.57,13.57,0,0,0,1.31-3.16,10.72,10.72,0,0,1,.52-1.39,3.89,3.89,0,0,0,.55-2.39,4.35,4.35,0,0,0-.3-1.42,4.12,4.12,0,0,1-.25-2.38,1.73,1.73,0,0,0-.15-1.56l.14-.17a2.29,2.29,0,0,0,.52-2.77,2.11,2.11,0,0,1-.15-.69,10.18,10.18,0,0,1,1.62-4.9c.83-1.11,1.18-1.83.88-2.92a5.72,5.72,0,0,0-.38-1,1.32,1.32,0,0,0-1.22-.83,2.41,2.41,0,0,0-.45.05c-.17,0-.73.09-1.22.12h-.38a2.69,2.69,0,0,1-.8-.09.6.6,0,0,1,.15-.31,5.32,5.32,0,0,0,1.45-2.66,4.66,4.66,0,0,1,.13-.72,10.52,10.52,0,0,0,.26-1.78,9.25,9.25,0,0,1,.15-1.25,53.69,53.69,0,0,0,.41-6,9.92,9.92,0,0,0-.14-1.78l-.27-1.28c-.1-.48-.1-.48.16-1.51.19-.73.4-1.66.49-2.11s.31-1.45.51-2.33.41-1.76.46-2a1.14,1.14,0,0,1,.09-.28c1-.07,6.34-.13,11.27-.13,3.37,0,4.85,0,5.09.06a9.11,9.11,0,0,0,1,.08,5.28,5.28,0,0,0,1.35-.2,14.23,14.23,0,0,1,3.63-.2h3.21l.23-.13.57-.32.34-.19,12.54-.08,14.08-.1h.17c.72,0,1.88.05,2.72.12s1.18.1,1.51.1a2.56,2.56,0,0,0,1.27-.3.93.93,0,0,1,.36-.11c.05,0,.14.06.24.17a2.64,2.64,0,0,0,2,.84,5.89,5.89,0,0,0,.7,0c.77-.09,1.26-.15,1.48-.15h0l.07,0a1.75,1.75,0,0,0,.87.26,2.51,2.51,0,0,0,.89-.22,7.92,7.92,0,0,0,1-.49,23.59,23.59,0,0,1,2.7-.07c2.71,0,3.13,0,3.75-.38.27-.08,2-.08,4.83-.08h.26c2.4,0,4,0,4.45.06.52.4.82.4,9.57.4,7.57,0,8.55,0,9,.16a5.67,5.67,0,0,0,2.17.3,11.33,11.33,0,0,1,1.81.15,9.17,9.17,0,0,0,1.87.19,6.44,6.44,0,0,0,3.21-.72.88.88,0,0,1,.42-.09,2.31,2.31,0,0,0,1.45-.43,6.15,6.15,0,0,1,.78,0,3,3,0,0,0,2-.42c.22,0,1,0,1.4,0M114.35,89.21a26.54,26.54,0,0,1-2.93-.14c-.92-.13-5.67-.22-8.42-.22-2.56,0-2.67,0-3,.39-.1.11-.3.33-.46,1.3a6.09,6.09,0,0,1-.43,1.26,5.33,5.33,0,0,0-.51,1.56.86.86,0,0,1,0,.21,1.39,1.39,0,0,0,.17,1.33,8.77,8.77,0,0,1,0,2.64A1.55,1.55,0,0,0,99,99.39l0,0c0,.17,0,.57,0,.91,0,.73-.11,1.76-.17,2.31l-.06.51c-.22,2-.27,2.44.15,2.91a1.1,1.1,0,0,0,.82.37,1.82,1.82,0,0,0,1.06-.45l.14-.1a4.37,4.37,0,0,0,.87-.7,5.43,5.43,0,0,1,.76-.29,2,2,0,0,0,1.29-1.31,5.75,5.75,0,0,1,.49-.33c.45-.26,1.11-.7,1.5-1a19.37,19.37,0,0,1,2.63-1.62c.53-.28,1.32-.74,1.78-1,.3-.19.54-.32.65-.38A1.51,1.51,0,0,0,112.09,98a2.44,2.44,0,0,1,.62-.57c.87-.41,1.92-.86,2.12-.92a4,4,0,0,0,1.19-.71,5.84,5.84,0,0,1,.85-.57,3.42,3.42,0,0,0,.92-.62,4.88,4.88,0,0,1,.43-.34,12.49,12.49,0,0,0,1.19-1,5.27,5.27,0,0,1,1.28-.88,3.3,3.3,0,0,0,1.45-1.06,3.51,3.51,0,0,1,.54-.39c1-.57,1.13-.81,1.23-1.09l.16-.5-.3-.42c-.32-.44-.7-.52-2.53-.52a10.41,10.41,0,0,0-2.29.15c-.47.14-2.36.54-3,.63a14.82,14.82,0,0,1-1.64.06M187.69,61c-1.52,0-1.73,0-2,.23s-.47.23-1.38.23-1.14,0-1.38.23a1.32,1.32,0,0,1-.85.23,1.84,1.84,0,0,0-.94.23,5.52,5.52,0,0,1-2.68.57,8.11,8.11,0,0,1-1.66-.17,12.23,12.23,0,0,0-2-.17,4.69,4.69,0,0,1-1.82-.23c-.59-.22-.89-.23-9.33-.23s-8.72,0-9-.23-.46-.23-5-.23h-.26c-4.77,0-5,0-5.35.23s-.59.23-3.23.23-2.89,0-3.2.21a7.33,7.33,0,0,1-.9.42,1.72,1.72,0,0,1-.54.15.83.83,0,0,1-.39-.14,1,1,0,0,0-.57-.15c-.28,0-.73.05-1.6.16a4.94,4.94,0,0,1-.58,0,1.64,1.64,0,0,1-1.32-.52,1.3,1.3,0,0,0-1-.48,1.87,1.87,0,0,0-.78.21,1.61,1.61,0,0,1-.85.21c-.29,0-.71,0-1.43-.1s-2.07-.13-2.8-.13h-.19l-14.07.1L97.79,62l-.57.32-.57.32H93.71a15.1,15.1,0,0,0-3.87.23,4.34,4.34,0,0,1-1.11.17,8.23,8.23,0,0,1-.91-.07c-.41,0-2.56-.07-5.2-.07-4.78,0-11.15.07-11.56.16s-.65.46-.77,1.05c0,.24-.25,1.13-.45,2s-.43,1.92-.52,2.36-.3,1.37-.48,2.06a3.18,3.18,0,0,0-.17,2l.27,1.29a9,9,0,0,1,.11,1.56,55.54,55.54,0,0,1-.38,5.75,9.92,9.92,0,0,0-.18,1.44,9.57,9.57,0,0,1-.23,1.57,5.15,5.15,0,0,0-.17,1,4.63,4.63,0,0,1-1.18,2,1.4,1.4,0,0,0-.29,1.58c.22.33.81.51,1.67.51h.44c.5,0,1.1-.09,1.34-.14l.27,0c.16,0,.22.07.33.28A4.8,4.8,0,0,1,71,90c.18.66,0,1.06-.71,2.06a11.12,11.12,0,0,0-1.82,5.5,3.07,3.07,0,0,0,.24,1.1c.3.66.22,1-.37,1.69s-.54.83-.26,1.32a.76.76,0,0,1,.06.78,5,5,0,0,0,.32,3.14,3.52,3.52,0,0,1,.19,1,3,3,0,0,1-.46,1.92,10.41,10.41,0,0,0-.6,1.63,13.39,13.39,0,0,1-1.22,2.89,3.16,3.16,0,0,0-.44,1.82,2.06,2.06,0,0,0,.73,1.9l.41.39-.07.9a2.28,2.28,0,0,0,.43,1.89,5.26,5.26,0,0,1,.51,1,6.49,6.49,0,0,0,.4.87,10.32,10.32,0,0,1,.43,1.1,2.8,2.8,0,0,1,.24,1.73,7.77,7.77,0,0,1-.16.9,19.77,19.77,0,0,0-.4,4.06,5.08,5.08,0,0,1-.18,2,2.39,2.39,0,0,0-.17.94,8.31,8.31,0,0,1-.06,1.1,1.64,1.64,0,0,0,.17,1,13.44,13.44,0,0,1,.54,1.92c.16.76.38,1.64.49,2a7.78,7.78,0,0,1,.17,2.6A49.39,49.39,0,0,1,69,147.5a.94.94,0,0,0,0,.71c.11.25.09.36-.11.63s-.24.59-.31,3.23a14.78,14.78,0,0,0,.06,3.15,11.24,11.24,0,0,1,.23,2.71,9.06,9.06,0,0,1-.17,1.41,6.22,6.22,0,0,0,.31,3.86,3,3,0,0,1,.08,1.85,22.5,22.5,0,0,0-.15,2.71v1.63l.47,1a5.89,5.89,0,0,1,.54,1.74l.08.72-.38.22c-.67.4-.67.39-.67,1.77a9.49,9.49,0,0,1-.11,1.69c-.11.42-.27,5.66-.26,8.94a15.11,15.11,0,0,0,.19,2.77,16.2,16.2,0,0,1-.31,6.52,17.49,17.49,0,0,0,.21,5.08,2.52,2.52,0,0,1-.11.88,3.46,3.46,0,0,0-.11,1.08c.07.47-.11,1-.33,1a.73.73,0,0,0-.38.26,2,2,0,0,0-.36,2.39,8.94,8.94,0,0,1,.59,1.24,7.94,7.94,0,0,1,.43,2.94,19.44,19.44,0,0,1,0,3.9l-.09,1H67.25c-.87,0-1.15,0-1.25.17a1.8,1.8,0,0,0,.13,1.33,5.18,5.18,0,0,0,1.65.86c.24,0,.85.54,1.05.93a3.67,3.67,0,0,1,0,2.21,6.51,6.51,0,0,0-.12,2c0,.74.11,2.75.17,4.47s.14,3.61.16,4.21a4.82,4.82,0,0,1-.11,1.53,3,3,0,0,0-.16.81.86.86,0,0,1-.13.5,21,21,0,0,0-.43,4.66,6.33,6.33,0,0,0,.17,2,5.3,5.3,0,0,1,.16,1.77,19.72,19.72,0,0,0,.16,2.54,15.13,15.13,0,0,1,0,4.6,5.49,5.49,0,0,0-.11,1.72,18.76,18.76,0,0,1-.05,3.87,25.37,25.37,0,0,0,0,4.68,29.33,29.33,0,0,1,.39,3.81,17.21,17.21,0,0,1-.43,3.29,5.73,5.73,0,0,0,0,2.73c.16.59.16.69,0,.92a1.44,1.44,0,0,0,.09,1.49c.24.3.26.45.26,1.72a4.12,4.12,0,0,0,.45,2.42,4.45,4.45,0,0,1,.5,2c0,.81,0,1-.2,1.36a9.3,9.3,0,0,0-.54,1.33,3.92,3.92,0,0,0-.23,1.93,6.07,6.07,0,0,0,.47,2.46,1.86,1.86,0,0,1-.16,1.85,4.17,4.17,0,0,0-.45,1.36,6.18,6.18,0,0,1-.29,1.19,2.85,2.85,0,0,0,.11,2.19c.28.88.28.93.1,1.38s-.21,1.23-.3,5c-.06,2.51-.11,5.44-.1,6.52s0,3.19,0,4.7c0,2.41,0,2.77.19,3.08a.55.55,0,0,1,.06.64c-.19.43-.17.64.15,1.27s.27.9-.1,1.2-.24.69,0,1.19a6.85,6.85,0,0,1,.29,1.1,1.56,1.56,0,0,1-.19,1.38c-.31.62-.33.76-.34,2.32s0,1.71.22,2.12.23.47,0,1.05a2.25,2.25,0,0,0-.06,1.46,19.46,19.46,0,0,1,.17,2.42,5.76,5.76,0,0,0,.55,3.1c.22.35.25.56.24,1.4a8.42,8.42,0,0,1-.27,1.9,7.35,7.35,0,0,0-.33,3.46,25.52,25.52,0,0,1-.06,4.61,6.12,6.12,0,0,1-.13,1c0,.1-.12,1.63-.19,3.4s-.14,3.49-.17,3.81a44,44,0,0,0,0,4.73,7.21,7.21,0,0,0,.44,2.24c.2.37.13.73-.23,1.26a1.77,1.77,0,0,0-.12,1.9c.18.29.23.62.26,1.86s0,1.54-.18,1.83-.21.38-.06,1a44.35,44.35,0,0,1,.13,6.19c0,5.1,0,5.56-.23,5.83a4.17,4.17,0,0,0-.76,1.85,6,6,0,0,1-.24,1.09,4.79,4.79,0,0,0-.13,1.62v.25c1,.09,1.9.18,2.85.24,9.84.42,19.72.58,29.62.61l0-2.24c-.08-3.53-.08-2.8.05-10,.06-3.61.06-5.91,0-6.26a2.9,2.9,0,0,1,.07-1.35,9.74,9.74,0,0,0,.05-3.35,3.91,3.91,0,0,1-.11-.87c0-1.66,0-6.54-.14-8.88-.07-1.58-.13-3.95-.14-5.25s-.05-3.12-.1-4c-.13-2.39-.13-16.94,0-18.86.06-.89.1-2,.09-2.48a65.35,65.35,0,0,1,.07-7.27,13.69,13.69,0,0,0,0-3.45,16.81,16.81,0,0,1-.09-2.27,12.42,12.42,0,0,0-.12-2.36c-.19-.68-.18-16,0-16.54a11.37,11.37,0,0,0-.06-2.9,10.74,10.74,0,0,1-.06-2.8,10.93,10.93,0,0,0,.12-2.28c0-1.13,0-3.35.05-4.94a21.6,21.6,0,0,0-.09-3.69,29.6,29.6,0,0,1-.05-4.73c.05-2.16.07-4.31,0-4.78s-.09-2.18-.12-3.8-.09-3-.12-3a6.52,6.52,0,0,1,.11-1.28,19.87,19.87,0,0,0,.15-3c0-1.72,0-1.88.2-2.12s.23-.44.26-2.75c0-1.37,0-3,0-3.59a7.58,7.58,0,0,0-.1-1.51,3,3,0,0,1,0-1.14,2.1,2.1,0,0,0,0-1.12,4.45,4.45,0,0,1-.06-1.63c0-.68.11-1.93.12-2.79s.05-1.77.06-2,0-1,0-1.62a5.93,5.93,0,0,1,.18-2.44,1.9,1.9,0,0,0,0-1.51,4.63,4.63,0,0,1-.16-1.81,47.85,47.85,0,0,0,0-4.79,8.74,8.74,0,0,1,.29-2.82c.12-.6.11-.73-.07-1.06a.74.74,0,0,1-.07-.75,13.72,13.72,0,0,0,0-3.7,6.13,6.13,0,0,1,.19-3.24,2.45,2.45,0,0,0,0-1.77,14.55,14.55,0,0,1-.35-1.46c-.16-.85-.16-.92.06-1.35A2.58,2.58,0,0,0,99,201l-.29-.23.24-.46c.3-.59.29-.72-.06-1.4a1.66,1.66,0,0,1-.22-1.3,8.43,8.43,0,0,1,.24-1.27,9.22,9.22,0,0,0,.23-1.51A3.81,3.81,0,0,0,99,193a3.26,3.26,0,0,1-.12-2,4.37,4.37,0,0,0,0-1.57c-.13-1.11-.13-1.19.11-1.64s.31-.78.08-1.84a29.49,29.49,0,0,1-.24-3.73c0-1.61-.13-3.26-.2-3.68a4.19,4.19,0,0,1,.1-2.31,15.12,15.12,0,0,0,.22-4c0-2.77,0-3.32.21-3.84s.2-1,.16-3.75a26.19,26.19,0,0,1,.1-3.83c.08-.42.16-2.33.19-4.84,0-2.28.1-5,.14-6.07.07-1.68.05-2-.11-2.19a2.93,2.93,0,0,1,0-2.09,7.41,7.41,0,0,0-.18-3.53,3.15,3.15,0,0,1-.05-2.21,7.56,7.56,0,0,0,.16-1.71c0-.55,0-1.51.06-2.14l.09-1.14.75-.59c.41-.33,1-.85,1.37-1.16a6,6,0,0,1,1.16-.82,11.64,11.64,0,0,0,1.65-1.15,18.78,18.78,0,0,1,2-1.42,10.87,10.87,0,0,0,1.27-.84,8.49,8.49,0,0,1,1.61-1.24,10.08,10.08,0,0,0,2.45-1.85,4.37,4.37,0,0,1,1.62-1.1c.75-.38,1.61-.88,1.93-1.1a24.11,24.11,0,0,0,2.57-2,1,1,0,0,1,.5-.28,2,2,0,0,0,.72-.39,10.49,10.49,0,0,1,1-.69,4.84,4.84,0,0,0,.72-.53,4.23,4.23,0,0,1,.86-.51,7.3,7.3,0,0,0,2.33-2,1.87,1.87,0,0,1,.79-.59A5.75,5.75,0,0,0,126,116a10.94,10.94,0,0,1,1.37-.92c.56-.33,1.58-1,2.27-1.51a10.41,10.41,0,0,1,1.36-.92,1.65,1.65,0,0,0,.5-.45A9.31,9.31,0,0,1,133.2,111a34.14,34.14,0,0,0,3.51-2.31,1.79,1.79,0,0,1,.57-.36c.15,0,1.35-.8,2.66-1.67s3-1.9,3.76-2.28a8,8,0,0,0,1.78-1.12,4,4,0,0,1,.85-.65,12,12,0,0,0,2-1.41,4.19,4.19,0,0,1,.78-.53,2.24,2.24,0,0,0,1-1,3,3,0,0,1,1.06-1.1,12.86,12.86,0,0,0,1.2-.92,1.85,1.85,0,0,1,.67-.44,6.93,6.93,0,0,0,1.78-.88,7.11,7.11,0,0,0,1.1-1.14,3.21,3.21,0,0,1,1-.94,3.45,3.45,0,0,0,.63-.24,21.7,21.7,0,0,0,3-2.62,4.86,4.86,0,0,1,2.66-1.22l1.77-.23a7.44,7.44,0,0,1,1-.08,1.68,1.68,0,0,1,.34,0c.21,0,2.39.13,4.87.18s4.88.13,5.34.17l.51,0a4.91,4.91,0,0,0,1.28-.19c.87-.22,1.32-.24,5.92-.27l5,0,.19.32a3.43,3.43,0,0,0,.64.68c.41.33.46.42.46.89a3.21,3.21,0,0,0,.13.89c.12.33.1.45-.17,1a4.79,4.79,0,0,0-.6,2.45h2.81a7.75,7.75,0,0,1,.28-1.78,4,4,0,0,0,.14-1c0-.53,0-.57.34-.66a.87.87,0,0,0,.43-.24,1.33,1.33,0,0,0,0-1,1.68,1.68,0,0,1,0-.73l.06-.53,6.53,0c6.23,0,7-.05,8-.37a3,3,0,0,1,.83-.1,2.85,2.85,0,0,1,1.12.19,1.07,1.07,0,0,0,.5.14,3.37,3.37,0,0,0,.63-.09c.39-.08,1.13-.21,1.63-.29.9-.14,1.22-.33,1.22-.72a1.17,1.17,0,0,0-.54-.63,6.79,6.79,0,0,1,0-1.95c.06-1,.13-2.86.16-4a54.44,54.44,0,0,1,.36-6.7.74.74,0,0,1,.31-.37,1.62,1.62,0,0,0,.64-1.17c0-.26-.14-.49-.59-.92a9.27,9.27,0,0,1-2-3.81,5.25,5.25,0,0,0-.46-1,1.42,1.42,0,0,1-.23-.61,4.78,4.78,0,0,0-1.22-2.37,9.07,9.07,0,0,1-.9-1.15,1.12,1.12,0,0,0-.49-.5,1.6,1.6,0,0,1-.6-.5,1.76,1.76,0,0,0-1.71-.75l-.62,0a3.57,3.57,0,0,0-1.57.28c-.33.2-.67.22-5.2.22-4.11,0-4.87,0-5-.17a1,1,0,0,0-.39-.25,2.42,2.42,0,0,1-.56-.31,1,1,0,0,0-.75-.2l-.82,0-.86,0c-.42,0-.48-.06-.65-.25a.8.8,0,0,0-.49-.28,1.1,1.1,0,0,1-.54-.23c-.26-.21-.47-.23-2-.23ZM114.35,90.21a15.46,15.46,0,0,0,1.78-.07c.67-.09,2.61-.5,3.12-.66a12,12,0,0,1,2-.11,6.1,6.1,0,0,1,1.72.12,3.51,3.51,0,0,1-.79.55,3,3,0,0,0-.88.7,2.91,2.91,0,0,1-1.05.72,6.21,6.21,0,0,0-1.54,1.06,11.69,11.69,0,0,1-1.08.94,4.55,4.55,0,0,0-.58.47,3,3,0,0,1-.64.4,6.78,6.78,0,0,0-1,.69,3.11,3.11,0,0,1-.81.51c-.27.07-1.45.58-2.29,1-.47.23-1.17,1-1.17,1.26a.49.49,0,0,1-.42.48,4.57,4.57,0,0,0-1,.52c-.44.28-1.21.73-1.7,1a20.3,20.3,0,0,0-2.76,1.7c-.37.27-1,.69-1.42.94a3.33,3.33,0,0,0-.81.6c-.32.69-.43.84-.75.94a3.2,3.2,0,0,0-1.21.56,3,3,0,0,1-.7.56c-.32.22-.52.38-.64.38s-.15-.62.07-2.67c.07-.6.15-1.67.18-2.38.06-1.24.05-1.29-.23-1.63s-.29-.36-.11-.88a7.7,7.7,0,0,0-.09-3.5.4.4,0,0,1-.1-.44,1.74,1.74,0,0,0,.11-.54,4.57,4.57,0,0,1,.41-1.16,7,7,0,0,0,.52-1.53,2.72,2.72,0,0,1,.21-.78,17.58,17.58,0,0,1,2.3-.07c2.85,0,7.44.09,8.28.21a27.34,27.34,0,0,0,3.06.15Z"/><path class="cls-8" d="M.5,373l12-8.5,13,4h15l29,8,11-12v9l26-9,26,12,18-6,16,6,22-9s19,17,23,17,27-8,27-8h4s3-33,10-19,6,13,13,12,3-2,7,0,27,3,27,3,12,6,16,4,26-18,27-15,7,8,7,8,18-3,20-3,26,18,26,18l22-15,16,7,23-11s15,10,16,11,25-5,26-7-2,4,5,4,15-22,24-11,8,18,14,14,14-13,14-13l9.5,5.77.5,31.23H.5V373Z"/></g></svg>